<?xml version="1.0" encoding="UTF-8"?>
<svg width="98px" height="19px" viewBox="0 0 98 19" version="1.1" xmlns="http://www.w3.org/2000/svg" xmlns:xlink="http://www.w3.org/1999/xlink">
    <!-- Generator: Sketch 63.1 (92452) - https://sketch.com -->
    <title>24/7</title>
    <desc>Created with Sketch.</desc>
    <g id="Home" stroke="none" stroke-width="1" fill="none" fill-rule="evenodd">
        <g id="247mirror-1680" transform="translate(-1043.000000, -5132.000000)" fill="#FFFFFF">
            <g id="footer" transform="translate(0.000000, 4861.000000)">
                <g id="logos" transform="translate(539.000000, 267.000000)">
                    <g id="24/7" transform="translate(504.000000, 4.000000)">
                        <path d="M33,0 L33,18.75 L0,18.75 L0,0 L33,0 Z M6.02717747,5.25 C3.93328159,5.25 3,6.71733912 3,8.18477461 L4.63923047,8.18477461 C4.63923047,7.29508101 5.11824583,6.84445197 6.02717747,6.84445197 C7.36722293,6.84445197 7.40314908,7.89595185 7.40314908,8.18477461 C7.40314908,8.72782308 6.78092809,9.09759716 5.72799246,9.6522101 C4.75888452,10.1605651 3,10.7151781 3,11.9052589 L3,13.4998073 L9.06593114,13.4998073 L9.06593114,11.8133213 L4.98591784,11.8133213 C5.27302767,11.5355812 5.79954538,11.3737749 6.42166657,11.0502587 C7.5583301,10.4609524 9.06623053,9.72150058 9.06623053,8.18477461 C9.06623053,6.71733912 8.02527028,5.25 6.02717747,5.25 Z M16.5783889,5.33085495 L14.5442701,5.33085495 L10.3928037,9.88330686 L10.3928037,11.3855321 L14.5685203,11.3855321 L14.5685203,13.5 L16.5786883,13.5 L16.5786883,11.3855321 L17.7989799,11.3855321 L17.7989799,9.88330686 L16.5783889,9.88330686 L16.5783889,5.33085495 Z M22.6668736,5.37701648 L20.9915174,5.37701648 L19.2089815,13.4998073 L20.9079891,13.4998073 L22.6668736,5.37701648 Z M30,5.33085495 L23.9457449,5.33085495 L23.9456451,6.9368714 L27.846327,6.9368714 L24.8071741,13.4997109 L27.1164273,13.4997109 L30,6.87904903 L30,5.33085495 Z M14.5684205,7.58390377 L14.5684205,9.88330686 L12.6660309,9.88330686 L14.5684205,7.58390377 Z" id="Combined-Shape" fill-rule="nonzero"></path>
                        <path d="M45.0750207,3.9963475 L41.4756308,8.75186553 L37.8761423,3.9963475 L35.25,3.9963475 L35.25,14.769264 L38.200591,14.769264 L38.200591,8.93704344 L40.8267333,12.2150656 L42.1244296,12.2150656 L44.7505719,8.93704344 L44.7505719,14.7697549 L47.701163,14.7697549 L47.701163,3.9963475 L45.0750207,3.9963475 Z M52.8269008,3.9963475 L49.8608363,3.9963475 L49.8608363,14.769264 L52.8269008,14.769264 L52.8269008,3.9963475 L52.8269008,3.9963475 Z M61.0285937,14.769264 L64.2726866,14.769264 L61.9090994,10.6909316 C63.0063443,10.0694667 63.6756883,8.90099204 63.6546375,7.64374362 C63.6546375,5.59696803 62.032591,3.9963475 59.4218235,3.9963475 L54.9883481,3.9963475 L54.9883481,14.769264 L57.9389392,14.769264 L57.9389392,11.3065549 L59.0203035,11.3065549 L61.0285937,14.769264 Z M57.9389392,6.4895727 L59.3138054,6.4895727 C60.5805549,6.4895727 60.9821735,6.96665619 60.9821735,7.64374362 C60.9821735,8.33634436 60.5805549,8.81342785 59.3138054,8.81342785 L57.9389392,8.81342785 L57.9389392,6.4895727 Z M67.4736117,14.7937122 L64.2370091,14.7937122 L66.5950772,10.7049721 C65.4987837,10.0791985 64.8313852,8.9084727 64.8534814,7.64992931 C64.8534814,5.5978517 66.4717827,3.99320556 69.0764396,3.99320556 L73.4997637,3.99320556 L73.4997637,14.7937122 L70.5560716,14.7937122 L70.5560716,11.3222646 L69.4771713,11.3222646 L67.4736117,14.7937122 Z M70.5560716,6.49271463 L69.1843592,6.49271463 C67.9205665,6.49271463 67.5198348,6.97107454 67.5198348,7.64992931 C67.5198348,8.34429738 67.9205665,8.82255911 69.1843592,8.82255911 L70.5560716,8.82255911 L70.5560716,6.49281282 L70.5560716,6.49271463 Z M80.8651044,3.75 C77.7446015,3.75 75.0411908,6.27395727 75.0411908,9.38270756 C75.0411908,12.4914579 77.7446015,15 80.8651044,15 C83.9856072,15 86.6735445,12.4914579 86.6735445,9.38270756 C86.6735445,6.27395727 83.9858043,3.75 80.8653015,3.75 L80.8651044,3.75 Z M80.8651044,12.322186 C79.2313785,12.3176257 77.910661,10.9945799 77.9151144,9.36700669 C77.9195904,7.73943348 79.2475467,6.42359874 80.8812732,6.42792352 C82.5149997,6.43226967 83.8359006,7.75513376 83.8316717,9.38270756 C83.830883,10.1648019 83.5176049,10.9144118 82.9610215,11.4659697 C82.4044382,12.0175277 81.6503456,12.3256511 80.8653015,12.3223115 L80.8651044,12.322186 Z M94.2564984,14.769264 L97.5,14.769264 L95.1366099,10.6909316 C96.2336916,10.0693162 96.9029485,8.90092759 96.8820494,7.64374362 C96.8820494,5.59696803 95.2598058,3.9963475 92.6494326,3.9963475 L88.2158586,3.9963475 L88.2158586,14.769264 L91.1663511,14.769264 L91.1663511,11.3065549 L92.2477154,11.3065549 L94.2564984,14.769264 Z M91.1663511,6.4895727 L92.5416115,6.4895727 C93.808361,6.4895727 94.2094869,6.96665619 94.2094869,7.64374362 C94.2094869,8.33634436 93.808361,8.81342785 92.5416115,8.81342785 L91.1663511,8.81342785 L91.1663511,6.4895727 Z" id="MIRROR"></path>
                    </g>
                </g>
            </g>
        </g>
    </g>
</svg>