<svg xmlns="http://www.w3.org/2000/svg" xmlns:xlink="http://www.w3.org/1999/xlink" viewBox="0 0 209 60"><style><![CDATA[.B{fill:#fff}.C{fill:#832916}.D{fill:#fe6647}.E{fill:#0fd578}]]></style><defs><path id="A" d="M0 .197h32.002V32.78H0z"/><path id="B" d="M.242.21H19.37v33.04H.242z"/><path id="C" d="M0 26.466c0 14.614 11.847 26.46 26.46 26.46s26.46-11.847 26.46-26.46S41.074.006 26.46.006 0 11.853 0 26.466"/><path id="D" d="M4.786 3.292C.43 7.282.388 13.387.428 15.027a5.66 5.66 0 0 1 2.297-.139 5.27 5.27 0 0 1 1.077.279c.7.26 1.26.72 1.807 1.215.024.022.035.067.068.068.225.005.453-.002.683-.008a12.43 12.43 0 0 1 .745-.007c1.595-4.29 4.814-7.145 8.278-6.863 4.576.373 7.846 6.073 7.304 12.732-.266 3.26-1.424 6.648-3.744 9.027-2.67 2.74-7.044 3.56-10.725 3.473-1.112-.026-3.203-.76-3.203-.76L.05 48.465c3.332 1.514 7.035 2.357 10.934 2.357 6.925 0 13.228-2.66 17.945-7.014a29.72 29.72 0 0 1 1.266-1.568c1.814-4.697 2.648-8.6 3.066-11.318.334-2.16.427-3.7.452-4.176.01-.18.23-4.554-.442-8.402-.5-2.855-1.61-9.208-6.285-13.44C23.77 1.988 18.777.006 13.966.006c-3.374 0-6.658.975-9.18 3.286"/><path id="E" d="M3.93.024C2.255.1.74 1.202.053 2.825a19.81 19.81 0 0 0 1.153 7.369c1.067 2.974 2.625 5.08 3.696 6.317a24.87 24.87 0 0 1 .541-3.327c.69-2.954 1.817-5.338 2.855-7.1.16-.49.424-1.532.073-2.717C7.874 1.69 6.232.02 4.113.02L3.93.024"/><path id="F" d="M2.548 4.73C1.04 7.637.49 10.47.124 13.83.06 14.408.06 14.93.058 15.48l-.024.727a4.62 4.62 0 0 1 3.641-1.643 4.63 4.63 0 0 1 4.513 4.351l.125-.2.1-.18c.205-.35.444-.66.703-.983l1.3-1.565 2.163-2.758a11.41 11.41 0 0 0 1.83-8.359c-.078-.472-.197-.943-.364-1.394-.31-.84-.785-1.615-1.454-2.206-.995-.88-2.1-1.25-3.208-1.25C6.605.01 3.8 2.313 2.548 4.73"/><path id="G" d="M.01 1.53S1.98 4.568 7.835.036L.01 1.53z"/><path id="H" d="M2.372 2.82C.478 4.84.117 7.158.03 7.966l6.583-1.633c-.35-.297-1.156-1.07-1.267-2.2C5.182 2.474 6.572.66 8.84.023 8.22.03 4.898.13 2.372 2.82"/><path id="I" d="M.01.004h9.802v8.932H.01z"/><path id="J" d="M10.868.54L8.06 1.604l-.194.08-2.336 1.05-.048.023-.146.072c-.817.4-1.657.798-2.423 1.34-.182.13-.358.27-.522.438a2.88 2.88 0 0 0-.334.394c-.06.086-.117.174-.17.27-.24.434-.327.9-.382 1.416a17.75 17.75 0 0 1 1.605-.881 19.86 19.86 0 0 1 1.928-.818l.187-.066c.64-.225.63-.13-.015.124l-.187.075c-.655.265-1.3.568-1.937.91l-1.69 1.005c-.48.317-.988.713-1.222 1.37l-.067.227c-.184.776.14 1.478.678 1.827.56.363 1.222.292 1.82.262l1.955-.168.17-.02 1.864-.3.327-.07.172-.04 1.983-.515c-.145-.288-.232-.632-.232-1.046l.01-.25c.052-.707.326-1.274.692-1.75-.37-.692-.39-1.583-.035-2.378.256-.575.655-1.005 1.064-1.38.45-.41.924-.784 1.417-1.1-.02-.617.157-1.194.446-1.683l-1.57.51"/><path id="K" d="M8.865.598c-1.127.438-2.238.932-3.3 1.562-.802.477-1.6 1.033-2.28 1.76a3.94 3.94 0 0 0-.49.65l-.07.123c-.28.507-.463 1.108-.44 1.753L.43 11.834c-.093.168-.176.345-.244.53-.036.1-.068.205-.094.314-.15.624-.122 1.37.237 1.924l.042.06a1.47 1.47 0 0 0 .186.22c.307.31.695.46 1.06.557.525.138 1.06.203 1.587.27a22.33 22.33 0 0 0 3.529.166c1.78-.057 3.532-.33 5.254-.76l1.97-.85 1.405-1.4-.446-2.443L12 .028l-3.124.57z"/><path id="L" d="M.083 4.127C.495 5.76 2.97 6.566 5.61 5.93L4.118.018C1.477.655-.33 2.494.083 4.127"/><path id="M" d="M.766 5.64c-.333.63-1.05 1.98-.6 3.45.266.866.836 1.438 1.202 1.745l2 5.578c-.13.32-.634 1.662.015 2.825.58 1.04 1.704 1.5 2.712 1.54 4.85.188 8.186-1.936 8.186-1.936 1.22-.778 6.12-3.895 6.093-9.402-.014-2.968-1.5-6.105-4.04-7.873-1.54-1.067-3.253-1.5-4.968-1.5C6.704.063 2.023 3.27.766 5.64"/><path id="N" d="M5.46.94C1.723 2.412-.653 5.405.234 7.83s4.664 3.275 8.438 1.896c1.014-.37 1.92-.867 2.692-1.438l2.964-7.12S12.77.023 9.98.023c-1.264 0-2.78.235-4.517.92"/></defs><g transform="translate(-3)" fill="none" fill-rule="evenodd"><path d="M87.467 28.598c-.158-.008-.4-.136-.753-.386-.513-.36-.974-.373-1.38-.038-.192.154-.344.197-.457.132-.1-.094-.066-.235.07-.42a1.38 1.38 0 0 1 .54-.436c.152-.043.24-.08.263-.1l-.393.006c-.3.036-.604.227-.88.574-.455.603-.83 1.322-1.13 2.156s-.425 1.55-.383 2.15c.06 1.2-.027 1.813-.26 1.84s-.282.623-.148 1.788c.098.855.288 1.43.572 1.725s.685.308 1.205.038c.865-.467 1.724-1.772 2.578-3.916.308-.744.4-1.148.274-1.212s-.157-.283-.096-.658a2.8 2.8 0 0 0 .026-1.144c-.044-.4-.024-.594.066-.618s.22.152.395.526c.07.15.118.117.146-.096.02-.055.027-.108.02-.16.084-1.085-.01-1.664-.28-1.738m47.48-5.056c-.033-.166-.074-.3-.125-.4a.49.49 0 0 0-.117-.164c-.017-.01-.067-.012-.12-.006-.098.064-.306-.036-.626-.3s-.5-.46-.54-.587c-.036-.3.116-.355.457-.132a.99.99 0 0 1 .26.206l.48.417-.3-.478c-.22-.315-.427-.515-.62-.598-.617-.348-1.3.02-2.076 1.105-.97 1.37-1.443 3.3-1.418 5.8l.094 1.503c.05.218.154.317.3.3.103-.012.18.02.227.092s.1.265.125.575c.076.438.064.675-.036.712-.127.042-.076.258.154.65.225.368.438.62.637.753s.457.2.774.226c.63.006 1.156-.317 1.58-.97.515-.768.88-1.976 1.097-3.627s.187-3.104-.1-4.357l-.14-.712" class="B"/><g transform="translate(42 14.774)" class="B"><mask id="O"><use xlink:href="#A"/></mask><path d="M10.883 12.456c.07-.297.182-.35.336-.156.086.07.14.18.157.335.033.285.11.604.228.958.17.558.148.835-.06.833-.107-.014-.252-.306-.435-.874s-.26-.934-.225-1.096zM12.116 31.7l-1.7-3.994-1.25-3.162c-.014-.116-.1-.15-.287-.104-.104.012-.196-.05-.277-.185s-.234-.49-.457-1.07l-.34-.905a3.53 3.53 0 0 1-.158-.513c-.03-.14-.033-.225-.01-.255s.073-.048.15-.056c.13-.015.16-.098.1-.247l-1.522-3.994-1.418-3.772c-.003-.025-.07-.03-.2-.016-.104.012-.212-.08-.327-.277s-.304-.647-.568-1.35c-.326-.776-.443-1.22-.35-1.337.066-.112.013-.342-.158-.7-.2-.37-.33-.577-.387-.624-.06-.072-.198-.41-.412-1.016s-.316-.973-.304-1.105c-.018-.155.022-.264.12-.33.12-.092.145-.214.076-.363-.038-.1-.02-.175.053-.222s.25-.1.532-.16c.434-.102.7-.133.796-.092s.25-.002.457-.13.37-.265.484-.4c.132-.224.74-.413 1.823-.564.285-.033.42-.113.405-.243-.024-.208.062-.257.258-.148a.5.5 0 0 1 .264.245c.067.124.13.21.187.254s.11.053.16.02c.074-.034.163.047.264.245.27.52.33.92.178 1.2-.135.2.758 2.825 2.677 7.875l1.763 4.715c.012.104.09-.115.24-.657.658-2.488 1.118-4.758 1.38-6.808.005-.183.016-.316.033-.397.027-.45.06-.728.1-.838.037-.135-.04-.218-.225-.25s-.255-.167-.204-.41c.125-.958.315-1.478.568-1.56.078-.01.14.076.187.254l.205-.614.27-1.408.534-2.54c.108-.196.377-.32.804-.368s.75-.138.973-.27c.194-.127.596-.29 1.202-.493s1.052-.318 1.336-.35.433.003.445.105c.032.05.012.104-.06.165s-.042.097.09.107c.08.018.2.016.354-.001l.63.006.28.715 1.537 3.442 2.78 6.37 1.673 3.94c.04.127.12.025.24-.303s.33-1.06.632-2.198l.68-2.636.376-1.518.167-.767c.012-.12.006-.178-.02-.175-.08-.016-.13-.1-.144-.22-.02-.18.028-.442.146-.784s.215-.53.29-.564c.126-.04.335-.675.627-1.902s.38-1.886.264-1.978c-.06-.07-.028-.357.098-.857s.257-.848.39-1.048c.088-.14.178-.506.268-1.093l.127-.832L-.001 1.91.147 32.78l12.154-.65-.185-.417z" mask="url(#O)"/></g><path d="M139.33 32.286c-.764 1.91-1.982 3.343-3.656 4.296-.472.237-.82.4-1.05.455s-.783.15-1.663.25c-1.165.133-1.9.154-2.236.06-.354-.116-.584-.17-.687-.157-.155.018-.42-.11-.792-.38l-.527-.313c-.07-.03-.137.01-.203.122-.07.086-.137.12-.205.102s-.205-.12-.41-.307c-.528-.5-.637-.753-.327-.788.156-.018.088-.26-.2-.725a.48.48 0 0 1-.139-.181c-.672-1.05-1.163-2.357-1.474-3.922-.132-.693-.257-1.085-.37-1.177s-.224-.63-.324-1.615-.117-1.64-.05-1.96c.085-.403.224-.564.417-.48.028.023.06.072.095.147l.09-.246c-.006-.052.001-.105.02-.16.004-.42.1-1.03.32-1.827s.417-1.445.623-1.94c.18-.493.427-1.013.745-1.56s.548-.882.69-1.004.232-.264.266-.425c.03-.186.154-.424.37-.712s.39-.438.518-.453l.807-.172a3.58 3.58 0 0 0 1.173-.41c.344-.197.575-.302.692-.316s.245.025.387.113c.196.108.436.146.72.114.26-.03.443-.025.553.015.086.068.278.14.575.21.786.224 1.595.696 2.425 1.413a9.45 9.45 0 0 1 2.032 2.441c.788 1.378 1.3 3 1.504 4.863.29 2.51.052 4.722-.712 6.632zm-1.003 2.91c-.332.418-.563.635-.693.65-.39.044-.305-.253.25-.894l.383-.438.232-.203c.06-.046.105-.057.134-.035s.06.072.096.147c.064.098-.07.356-.403.774zm-.102-15.745c.022-.028.073-.048.15-.057.13-.015.28.105.455.36s.275.513.305.772-.033.397-.188.415c-.078.01-.136-.036-.173-.138l-.536-1.237c-.032-.048-.037-.087-.013-.116zm-28.07 14.365c-.088.037-.152-.008-.192-.135-.044-.153-.118-.682-.222-1.588-.08-1.144-.07-1.736.032-1.774.08.018.144.12.193.312s.115.663.202 1.413l.124 1.42c-.004.197-.05.314-.137.35zm-1.262 1.17c-.092.116-.226.433-.402.95-.316.902-.792 1.836-1.43 2.8s-1.244 1.664-1.824 2.098c-1.254.958-2.584 1.196-4 .715s-2.67-1.613-3.794-3.4l-.912-1.43c-.316-.462-.645-1.505-1-3.132s-.51-2.938-.492-3.937c.02-1.418.24-2.702.658-3.853.202-.52.238-.774.11-.76-.233.027-.24-.26-.02-.863.102-.248.293-.53.57-.853s.494-.49.65-.507c.13-.015.215-.065.258-.148.04-.11.285-.374.736-.793l1.002-.863a2.53 2.53 0 0 1 .745-.36c.25-.108.733-.177 1.452-.207s1.316-.02 1.794.03c.535.096.946.245 1.232.448.282.178.512.23.687.157.178-.046.43.095.757.424.482.548.595.836.336.866-.078.01-.005.185.218.526.373.507.7 1.324.95 2.448l.12.694-.672.313c-.47.264-.696.448-.684.55s-.047.163-.176.178c-.104.012-.414.16-.933.442s-.81.376-.873.278c-.1-.094-.29-.07-.602.07s-.463.25-.454.328c.018.156-.07.18-.267.07-.113-.065-.174-.137-.182-.215a5.28 5.28 0 0 1-.292-.832c-.15-.402-.316-.697-.495-.887-.154-.192-.313-.436-.478-.732-.292-.49-.645-.476-1.057.043-.432.575-.696 1.366-.79 2.373l-.004 1.16c.01.43.04.802.09 1.11s.112.46.2.45c.13-.015.28.493.45 1.523.212 1.155.652 2.128 1.32 2.916.847.98 1.523 1.044 2.03.2.174-.308.19-.39.05-.242s-.263.227-.366.24c-.285.033-.248-.22.1-.76.246-.37.366-.58.36-.632s.015-.093.064-.126.107-.038.175-.02.117.052.15.1l.12-.33a2.02 2.02 0 0 1 .086-.285c.07-.532.15-.844.246-.933.097-.064.446.001 1.046.194.602.22.896.265.88.135-.024-.207.37-.2 1.183.02.544.173.825.332.84.473s-.014.218-.092.228-.02.055.173.137c.03.024.056.033.083.03.192.083.313.155.36.215s.07.222.075.483c.036.31.01.537-.08.678zm-10.06 5.92c-.105.012-.295-.163-.572-.524s-.424-.606-.44-.737c-.04-.336.105-.34.432-.01.115.092.236.222.36.39.405.558.478.85.22.88zm-2.64-3.12c-.13.015-.29-.136-.485-.455s-.34-.67-.436-1.05c-.06-.282-.086-.455-.08-.522s.048-.1.13-.074c.158.01.313.214.464.615.12.354.243.628.37.823.284.413.296.635.038.664zm-1.207 3.19c-.16-.02-.227.026-.2.14s-.11.23-.413.343c-.28.085-.618.215-1.017.393-.322.168-.54.252-.66.253s-.184-.064-.2-.194c-.018-.155.11-.288.387-.398.123-.067.196-.115.22-.144l-.16-.02c-.233.027-.614.136-1.142.328l-.836.254c-.026.003-.046-.06-.06-.2-.02-.18.03-.292.158-.333l-.048-.073c-.207.024-.324-.087-.353-.333s-.12-.36-.275-.342c-.104.012-.174-.026-.21-.114s-.078-.338-.126-.752c-.07-.622-.05-.94.068-.952s.14-.318.072-.913-.147-1.045-.234-1.35l-.13-.457-.69 1.535c-.86 2.092-1.634 3.467-2.318 4.123-.71.658-1.67 1.098-2.878 1.315-.54.088-.905.124-1.1.106s-.483-.096-.892-.232c-2.33-.86-3.658-2.726-3.99-5.6-.248-2.148.11-4.497 1.077-7.05.297-.846.405-1.266.328-1.257l-.068.087c-.187.205-.402.6-.647 1.215-.197.574-.36.868-.49.883-.233.027-.202-.383.095-1.23.185-.44.443-.87.776-1.29s.578-.61.74-.577c.106.015.312-.246.618-.78.592-1.013 1.287-1.86 2.088-2.542s1.584-1.107 2.352-1.274a2.61 2.61 0 0 1 1.425.072c.41.136.826.338 1.25.604l.555.37-.09-.777-.07-.936a2.75 2.75 0 0 0 .042-.32c-.012-.103.354-.224 1.1-.362.74-.164 1.248-.314 1.52-.45.198-.102.435-.155.7-.16s.457.04.547.133c.063.098.116.328.158.7s.15.612.322.75c.115.092.198.24.248.443s.123.72.218 1.55l.132 1.834c-.05.032.064.727.338 2.085l.518 2.104c.07.045.318 1.452.742 4.223l.706 5.447c.012.104-.062.145-.222.124zm-16.186.546c-.078.01-.223-.165-.434-.52a7.05 7.05 0 0 1-.544-1.137c-.122-.38-.232-.878-.33-1.497s-.112-.97-.042-1.057c.114-.144.23-.04.35.314.073.175.124.393.154.65.104.906.368 1.715.79 2.427.296.517.314.8.055.82zM60.858 36.54c-.14.488-.274.753-.4.794-.077.01-.132-.005-.162-.04s-.03-.135.005-.295c.022-.265.1-.587.203-.968.17-.57.323-.72.46-.447.07.15.034.468-.107.957zm90.48-6.194l.35-19.536-39.196 2.1.313 4.115.645 5.946.39 2.708.785-1.035c.495-.712.75-1.122.764-1.228-.012-.103.1-.378.338-.826s.468-.827.695-1.142c.366-.462.604-.567.71-.318.006.052.15-.11.436-.483l.865-1.2c.29-.427.443-.707.454-.84.057-.2.124-.3.202-.3s.23.06.457.203.333.165.322.06c-.03-.258.372-.068 1.206.57.606.48.92.826.945 1.032s.15.396.38.566.352.32.366.45-.173.492-.564 1.088-.638.9-.74.912c-.078.01-.793.858-2.146 2.548l-2.012 2.69c.006.052.273.323.802.812l1.22 1.04.17.1c-.086-.07-.135-.155-.147-.258s.034-.16.138-.173.32.114.653.377.504.448.516.55-.03.187-.13.25c-.15.07.05.323.6.758l1.48 1.246c.467.418.726.612.775.58.074-.034.282.06.623.283s.557.395.65.515c.12.144.163.283.127.42s-.126.158-.268.07c-.113-.065-.174-.09-.185-.077s.013.057.074.13c.07.15-.01.38-.235.696l-.13.25c.166-.15.29-.23.366-.24.363-.042.144.455-.654 1.492l-.902 1.048c-.167.15-.327.234-.482.252a1.84 1.84 0 0 0-.61.169c-.174.085-.283.052-.326-.1-.07-.15-.698-.818-1.883-2.006l-3.225-3.07-1.456-1.368.073.976c.093 1.275.286 1.92.577 1.94.106.015.18.078.22.19s.08.352.122.714c.062.544.047.874-.043.99-.12.12-.194.14-.23.065-.08-.016-.077.35.01 1.1l.134 1.165-1.825.2-2.083.358c-.127.04-.214.018-.264-.068s-.116-.374-.198-.863c-.13-.667-.56-3.95-1.3-9.844L108.3 16.167a21.6 21.6 0 0 0 .027.233c.013.575-.055.885-.208.928-.127.04-.197-.003-.212-.133s-.032-.39-.05-.78c-.038-.783-.005-1.18.1-1.192.05-.03.102-.024.16.02.115.092.185.018.21-.22.015-.288-.033-.918-.14-1.883l-27.892 1.494c-.033.263-.227 1.045-.58 2.346l-.56 2.308.133-.212c.03-.187.15-.28.362-.277.103-.012.16.02.168.098s-.08.337-.264.778l-.51 1.712-.263.796s-.145.22-.252.206c-.052.006-.104.065-.157.175s-.14.383-.26.817l-.44 1.645-.718 2.817-1.71 8.38c.216.054.214.383-.005.984-.16.44-.25.802-.268 1.093-.016.317-.086.508-.21.575-.097.064-.242.632-.433 1.703s-.348 1.653-.468 1.745c-.095.09-.336.157-.724.202-.31.036-.478.068-.5.097s.02.076.134.142c.168.086.232.196.196.33s-.218.157-.544.062c-.32-.042-.918.001-1.794.128-.832.07-1.253.053-1.265-.05a.39.39 0 0 0-.2-.37c-.164-.06-.334-.276-.508-.65s-.33-.59-.47-.654c-.116-.09-.18-.19-.19-.293s-.21-.566-.593-1.388-.568-1.285-.553-1.392c.037-.135-.25-.803-.86-2.006s-.97-1.81-1.076-1.824c-.132-.01-.32-.27-.562-.78s-.38-.92-.417-1.23c-.03-.26-.358-.943-.984-2.05l-1.155-1.834c-.052.006-.095.09-.13.25-.24.893-.656 2.96-1.253 6.203l-.853 6.255s-.5 4.458-.47 4.795c.015.132-.02.26-.103.386l88.486-4.74c.456-.024.73-.523.5-.918-.098-.168-.204-.314-.305-.387a4.41 4.41 0 0 1-.97-.903c-.288-.36-.42-.62-.4-.787.026-.19-.13-.505-.462-.94a13.17 13.17 0 0 1-.979-1.47c-.32-.546-.555-.77-.706-.68-.12.067-.243.037-.365-.1s-.314-.475-.574-1.04c-.44-.896-.5-1.324-.208-1.284.082.01.105-.056.068-.2-.04-.117-.117-.17-.23-.156-.118.04-.225.005-.32-.106s-.232-.36-.405-.745c-.34-.8-.388-1.183-.14-1.15.082.01.06-.132-.07-.428-.21-.53-.113-.84.3-.925.172-.033.265-.104.28-.215s.306-.308.874-.596c.92-.41 1.362-.476 1.326-.202-.01.083.218.043.686-.12.53-.21.952-.335 1.265-.377.23-.053 2.3-.337 2.37-.313s.18.115.3.27a1.47 1.47 0 0 0 .902.644.7.7 0 0 1 .473.335l.67 1.217z" class="B"/><g transform="translate(143.34 9.165)"><mask id="P" class="B"><use xlink:href="#B"/></mask><path d="M17.32.3c.516-.1.91-.117 1.18-.053.192.025.313.062.362.11s.075.17.077.366c-.01.28.07.43.234.45.137.018.202.104.196.257s-.092.637-.255 1.454c-.204 1.118-.363 1.795-.478 2.03-.088.24-.092.38-.013.417.105.042.09.467-.043 1.272s-.262 1.243-.383 1.31c-.063.048-.2.54-.384 1.478l-.446 2.58c-.104.783-.137 1.246-.1 1.4.082.01.073.4-.03 1.17s-.222 1.143-.36 1.125c-.082-.01-.14.044-.17.166s-.06.405-.1.847c-.036.693-.123 1.24-.26 1.64-.148.483-.295 1.176-.442 2.08l-.28 1.47.367-1.502c.217-1.004.38-1.5.49-1.486s.166.113.17.295-.075.667-.234 1.457c-.205 1.118-.374 1.668-.512 1.65a.68.68 0 0 1-.16-.063c-.07-.093-.134-.045-.186.143-.092.268-.3 1.203-.623 2.808-.6 2.77-1.085 4.507-1.485 5.21-.247.386-.352.652-.315.796.03.2-.27.516-.9.95s-1.25.75-1.864.948c-.35.122-.632.182-.84.182s-.67-.06-1.38-.183c-1.04-.165-1.725-.368-2.056-.607a4.39 4.39 0 0 1-.97-.903c-.288-.36-.42-.62-.4-.786.025-.19-.13-.506-.462-.94a13.26 13.26 0 0 1-.979-1.47c-.32-.545-.554-.77-.706-.68-.12.068-.243.038-.365-.1s-.314-.474-.574-1.04c-.44-.896-.5-1.325-.207-1.284.082.01.105-.056.068-.2-.04-.117-.118-.17-.23-.156-.117.04-.224.006-.32-.105s-.232-.36-.404-.745c-.342-.8-.39-1.183-.14-1.15.082.01.06-.13-.07-.428-.21-.53-.113-.838.3-.925.172-.033.265-.104.28-.214s.306-.308.875-.597c.92-.408 1.362-.476 1.326-.202-.01.082.218.043.687-.12.53-.21.95-.335 1.265-.377.23-.054.386-.068.467-.043s.18.115.3.27c.163.246.258.474.286.687s.123.33.288.353c.11.014.198.09.264.223s.154.42.265.853c.172.805.44 1.427.8 1.865s.695.553 1.002.343c.276-.187.498-.55.667-1.085s.385-1.485.65-2.847c.315-1.746.407-2.655.277-2.73-.127-.1-.14-.515-.046-1.242s.213-1.082.35-1.064c.11.015.21-.314.298-.987s.08-1.072-.03-1.2-.11-.6 0-1.425c.105-.796.222-1.206.352-1.23s.222-.257.28-.696c.047-.357.043-.54-.012-.546l-.088.03c-.183.116-.28.005-.292-.332l.104-.782c.088-.66.07-.997-.055-1.013s-.118-.532.017-1.548l.242-2.775.12-1.073c.028-.108.11-.153.248-.135.192.025.283.08.27.16s.07.107.242.074.297-.24.375-.62l.123-.612 1.877-.255L17.32.3z" mask="url(#P)" class="E"/></g><path d="M179.08 22.7c.285.066.46.16.53.28.04.117.035.368-.016.752s-.004.67.138.856c.095.125.142.298.14.52s-.06.775-.177 1.653l-.34 1.924c-.058.02-.122.766-.2 2.238l-.012 2.303c.06.065-.05 1.58-.33 4.544l-.683 5.796c-.015.1-.1.133-.26.07s-.24-.032-.243.093-.174.208-.515.246c-.3.014-.693.06-1.15.14-.375.1-.624.12-.746.1s-.173-.114-.155-.25c.022-.164.188-.268.5-.3.144-.036.233-.067.264-.1l-.16-.063c-.247-.033-.668-.018-1.263.042l-.927.046c-.028-.004-.032-.075-.014-.212.025-.192.108-.293.25-.302l-.03-.088c-.192-.026-.287-.14-.284-.342l.007-.092c.034-.26-.03-.402-.196-.424-.1-.014-.173-.07-.187-.17s.007-.37.065-.808c.087-.66.192-.98.316-.964s.227-.3.3-.922.12-1.115.108-1.452l-.017-.504-1.108 1.403c-1.43 1.934-2.582 3.15-3.457 3.65-.904.494-2.006.698-3.307.6-.58-.05-.964-.107-1.15-.173s-.473-.224-.86-.47c-2.178-1.5-3.064-3.757-2.66-6.804.302-2.278 1.28-4.607 2.935-6.986.524-.796.745-1.2.663-1.2l-.093.07c-.246.163-.572.525-.982 1.085-.35.54-.595.8-.732.783-.247-.033-.108-.447.416-1.244.305-.406.682-.782 1.134-1.128s.755-.48.912-.403c.107.043.386-.172.84-.643a10.22 10.22 0 0 1 2.81-2.08c1.002-.497 1.92-.73 2.754-.704.53.014 1.012.162 1.45.443.386.246.764.562 1.132.945l.475.524.1-.823.172-.983a3.06 3.06 0 0 0 .126-.318c.014-.1.423-.14 1.226-.1.807.023 1.37 0 1.685-.07.23-.053.488-.047.773.018zm-8.654 4.763c-.626.504-1.2 1.147-1.722 1.93s-.84 1.488-.95 2.116c-.25 1.252-.498 1.86-.745 1.83s-.452.568-.616 1.804c-.12.906-.073 1.548.144 1.925s.626.495 1.23.35c1.012-.257 2.236-1.38 3.672-3.37.5-.687.7-1.08.596-1.178s-.1-.333.072-.703a2.95 2.95 0 0 0 .323-1.173c.054-.412.13-.618.23-.62s.187.213.27.644c.033.172.1.152.176-.06a.39.39 0 0 0 .063-.16c.368-1.097.422-1.718.163-1.864-.162-.05-.387-.246-.676-.592-.436-.504-.908-.636-1.414-.396-.238.108-.406.114-.504.017-.068-.12-.008-.26.18-.416a1.36 1.36 0 0 1 .67-.3c.17-.005.268-.02.3-.044l-.406-.096c-.33-.043-.68.077-1.054.363zm17.644-3.53c.285-.046.8.01 1.55.163s1.36.32 1.84.495c.527.237.912.498 1.153.78.245.256.468.37.667.34.196-.001.42.2.67.633.355.7.396 1.016.122.98-.082-.01-.053.2.1.598.253.62.368 1.544.346 2.77l-.057.747-.774.15c-.55.15-.833.28-.848.4s-.1.156-.228.138c-.1-.015-.47.057-1.075.214s-.932.178-.972.06c-.067-.12-.28-.15-.638-.085s-.542.138-.553.22c-.022.165-.12.166-.294.003-.1-.097-.143-.187-.132-.27a5.45 5.45 0 0 1-.086-.933c-.052-.454-.146-.8-.28-1.043-.108-.238-.2-.53-.303-.878-.175-.58-.542-.658-1.1-.23-.595.48-1.07 1.227-1.428 2.24l-.305 1.196c-.1.447-.167.836-.196 1.168s-.003.502.08.513c.138.018.16.58.07 1.685-.08 1.247.12 2.363.605 3.348.62 1.228 1.3 1.47 2.04.73.26-.272.298-.35.115-.236s-.33.166-.44.152c-.303-.04-.2-.292.3-.755.35-.317.527-.503.534-.558s.04-.093.1-.113.12-.012.185.025.107.084.127.142l.2-.308a2.21 2.21 0 0 1 .162-.271c.2-.53.375-.83.496-.898.116-.04.46.117 1.027.47.564.382.855.505.874.366.03-.22.433-.1 1.213.328.516.32.764.556.744.706s-.07.22-.154.2-.035.052.143.186c.024.032.05.05.077.052.177.136.282.24.314.314s.016.247-.047.517c-.043.33-.13.556-.257.678-.125.095-.345.388-.66.876-.56.848-1.292 1.688-2.198 2.517s-1.714 1.392-2.423 1.7c-1.54.662-2.973.564-4.297-.296s-2.335-2.355-3.03-4.486l-.57-1.7c-.206-.557-.276-1.72-.2-3.484s.236-3.16.512-4.185c.388-1.457.947-2.723 1.676-3.8.343-.485.447-.737.3-.756-.247-.032-.18-.33.202-.894.17-.228.44-.472.8-.73s.636-.377.8-.355c.137.018.238-.01.305-.086.07-.102.4-.3.963-.627l1.256-.63a2.7 2.7 0 0 1 .862-.18zm18.28 7.488c-.546-.52-1.355-.32-2.426.6-1.355 1.16-2.342 3.028-2.96 5.6l-.292 1.574c-.004.237.077.366.242.4.1.014.18.065.2.153s.024.296-.02.626c-.035.47-.1.712-.22.725-.142.01-.145.247-.01.7.137.437.3.75.462.94s.417.335.74.433c.648.17 1.274-.026 1.88-.6.73-.658 1.42-1.8 2.07-3.456s.996-3.15 1.037-4.513l.04-.77a1.65 1.65 0 0 0-.025-.443c-.027-.115-.053-.18-.078-.2s-.067-.03-.12-.037c-.117.04-.306-.117-.566-.473s-.396-.604-.404-.745c.043-.33.2-.335.504-.017a1.08 1.08 0 0 1 .214.28l.388.554-.176-.568c-.145-.382-.307-.64-.484-.776zm-1.408-5.507c.406-.114.67-.163.795-.146s.246.1.37.216c.173.163.4.264.713.304.274.036.463.1.566.158.07.093.25.216.54.365.752.435 1.463 1.13 2.133 2.084a10.06 10.06 0 0 1 1.462 3.042c.455 1.625.552 3.425.3 5.4-.352 2.663-1.17 4.88-2.45 6.652s-2.9 2.932-4.88 3.48c-.547.123-.946.2-1.2.197s-.846-.05-1.778-.172c-1.236-.163-2-.336-2.32-.516-.335-.212-.558-.325-.667-.34-.165-.022-.404-.22-.717-.598l-.463-.46c-.064-.05-.143-.025-.24.074-.093.07-.173.1-.237.052s-.18-.177-.342-.422c-.418-.642-.462-.94-.132-.897.164.02.158-.244-.02-.8a.51.51 0 0 1-.096-.222c-.42-1.256-.588-2.73-.504-4.424.043-.75.017-1.185-.078-1.3s-.068-.707.085-1.748.304-1.72.458-2.035c.2-.393.376-.522.554-.387a.47.47 0 0 1 .06.175l.156-.23c.007-.055.027-.108.063-.16.112-.432.38-1.032.803-1.8s.804-1.38 1.144-1.84a10.67 10.67 0 0 1 1.172-1.416c.47-.483.793-.768.972-.856a.8.8 0 0 0 .384-.368c.08-.184.268-.397.566-.637s.514-.35.65-.333l.875.032c.47.035.908-.006 1.315-.12z" class="E"/><g transform="matrix(-1 0 0 1 53 0)"><g transform="translate(0 2.033)"><path d="M17.822 34.024c.61.64 2.078 1.908 4.254 2.14.583.063 2.117.12 3.79-.704.616-.303 1.897-.934 2.73-2.376.93-1.613 1.004-3.73.184-5.27-.388-.73-.816-1.034-1.408-1.458-.472-.337-1.007-.72-1.632-1.39-1.258-1.347-2.128-3.07-2.588-5.125-.636-.277-1.22-.373-1.747-.283a18.62 18.62 0 0 0-3.123 6.207c-.76 2.657-.918 5.51-.458 8.257m4.882 3.163c-.308 0-.56-.018-.734-.037-2.638-.283-4.36-1.886-4.976-2.562-.064-.07-.106-.156-.122-.248-.516-2.94-.358-5.998.456-8.845a19.61 19.61 0 0 1 3.403-6.685c.06-.077.14-.134.234-.165l.038-.01c.855-.212 1.796-.07 2.796.42.137.068.236.195.267.345.407 1.982 1.213 3.63 2.395 4.894.558.597 1.05.95 1.484 1.26.622.445 1.21.864 1.707 1.798 1 1.858.91 4.304-.2 6.23-.982 1.703-2.5 2.45-3.15 2.77a8.19 8.19 0 0 1-3.597.837" class="C"/><mask id="Q" class="B"><use xlink:href="#C"/></mask><path d="M38.9 21.648c-.16-2.308-.927-4.426-1.912-6.444s-2.422-3.515-4.497-4.35-4.125-.647-6.17.1c-.277.1-.56.206-.762.41-1.762 1.796-3.07 3.663-3.323 6.22-.013.134-.004.243.01.376.093.887.328 1.518.354 1.586.202.532-.118 4.82-1.85 18.4.862.375 2.108.797 3.64.91 6.234.454 10.637-4.71 11.19-5.39 2.905-3.583 3.628-7.414 3.322-11.813" fill="#ffedbd" mask="url(#Q)"/></g><g transform="translate(15.475 4.137)"><mask id="R" class="B"><use xlink:href="#D"/></mask><path d="M4.786 3.292C.43 7.282.388 13.387.428 15.027a5.66 5.66 0 0 1 2.297-.139 5.27 5.27 0 0 1 1.077.279c.7.26 1.26.72 1.807 1.215.024.022.035.067.068.068.225.005.453-.002.683-.008a12.43 12.43 0 0 1 .745-.007c1.595-4.29 4.814-7.145 8.278-6.863 4.576.373 7.846 6.073 7.304 12.732-.266 3.26-1.424 6.648-3.744 9.027-2.67 2.74-7.044 3.56-10.725 3.473-1.112-.026-3.203-.76-3.203-.76L.05 48.465c3.332 1.514 7.035 2.357 10.934 2.357 6.925 0 13.228-2.66 17.945-7.014a29.72 29.72 0 0 1 1.266-1.568c1.814-4.697 2.648-8.6 3.066-11.318.334-2.16.427-3.7.452-4.176.01-.18.23-4.554-.442-8.402-.5-2.855-1.61-9.208-6.285-13.44C23.77 1.988 18.777.006 13.966.006c-3.374 0-6.658.975-9.18 3.286" mask="url(#R)" class="D"/></g><g transform="translate(0 2.033)"><mask id="S" class="B"><use xlink:href="#F" href="#C"/></mask><path d="M20.798 36.77l-5.295 15.4C13.52 58.095 10.2 68.01 15 75.024c3.61 5.278 10.13 6.41 12.042 6.63 2.088.24 8.437.975 11.598-2.607 2.196-2.49 1.632-5.75.918-9.876-.726-4.192-1.628-9.408.253-15.447 1.077-3.457 2.904-6.7 5.43-9.64 1.428-3.712 2.44-7.458 3.008-11.136.222-1.438.38-2.904.447-4.127.002-.045.236-4.445-.435-8.3-.473-2.705-1.58-9.04-6.13-13.16C36.588 2.355 26.38.46 20.594 5.76c-3.63 3.327-4.18 8.266-4.202 10.76a6.09 6.09 0 0 1 1.878-.018 5.72 5.72 0 0 1 1.178.305c.782.3 1.39.793 1.902 1.254.153-.001.308-.006.464-.01l.424-.01c1.77-4.463 5.14-7.146 8.657-6.858 2.38.194 4.497 1.705 5.96 4.256 1.43 2.49 2.067 5.7 1.797 9-.307 3.764-1.686 7.078-3.883 9.332-3.34 3.426-8.866 3.677-11.09 3.623-.85-.02-2.18-.406-2.883-.63m9.663 46.102c-1.498 0-2.777-.148-3.532-.235-2.017-.233-8.898-1.43-12.746-7.055-5.077-7.42-1.66-17.627.38-23.725l5.458-15.87c.043-.124.134-.227.252-.284s.255-.065.38-.022c.02.007 2.03.708 3.05.732 2.09.048 7.3-.177 10.36-3.324 2.037-2.09 3.317-5.187 3.605-8.722.254-3.122-.338-6.118-1.67-8.437-1.296-2.26-3.136-3.595-5.182-3.76-3.147-.253-6.2 2.31-7.774 6.542-.074.2-.262.32-.48.322-.237-.008-.482 0-.72.007s-.474.014-.706.008c-.1-.003-.283-.037-.425-.23-.448-.405-.978-.85-1.61-1.085a4.75 4.75 0 0 0-.977-.253 5.19 5.19 0 0 0-2.098.128c-.147.04-.303.01-.424-.082s-.194-.233-.198-.384c-.057-2.344.27-8.218 4.518-12.112 6.177-5.66 17-3.695 22.87 1.61 4.802 4.347 5.95 10.917 6.44 13.723.69 3.956.45 8.47.45 8.515a44.47 44.47 0 0 1-.457 4.224c-.583 3.774-1.624 7.616-3.094 11.42-.02.053-.05.102-.087.145-2.465 2.854-4.245 6-5.29 9.352-1.8 5.8-.967 10.684-.223 14.984.73 4.215 1.36 7.854-1.15 10.7-2.31 2.617-6.024 3.17-8.922 3.17" mask="url(#S)" class="C"/><path d="M29.215 27.017c-.772-1.45-1.727-1.466-3.116-2.952-1.496-1.602-2.184-3.507-2.518-5.132-.953-.47-1.764-.557-2.457-.385-1.005 1.288-2.45 3.477-3.32 6.518-1.068 3.73-.746 6.908-.445 8.623.43.47 2.043 2.122 4.664 2.404.37.04 2.13.2 4.06-.752.65-.32 2.033-1 2.94-2.573 1.013-1.756 1.1-4.048.192-5.75" fill="#ffedbd"/><path d="M18.887 18.474c-1.76-.012-2.8-1.72-2.786-3.545s1.057-3.583 2.83-3.63 2.834 1.748 2.816 3.586-1.1 3.6-2.86 3.587" class="B"/><path d="M18.9 17.98c1.52 0 2.347-1.593 2.362-3.097.01-1.007-.333-1.95-.917-2.526a1.84 1.84 0 0 0-1.392-.56c-1.51.04-2.337 1.646-2.348 3.138-.006.81.225 1.597.633 2.157.293.402.82.883 1.662.89m.016 1h-.023c-.98-.007-1.852-.467-2.455-1.296-.537-.738-.83-1.714-.822-2.747.014-1.956 1.18-4.065 3.312-4.12.807-.018 1.53.27 2.112.845.77.76 1.225 1.97 1.212 3.242-.02 1.98-1.196 4.077-3.337 4.077" class="C"/><path d="M26.587 23.863c-3.452-.07-5.345-3.262-5.28-6.643s2.083-6.746 5.603-6.695 5.544 3.488 5.428 6.872-2.3 6.535-5.752 6.466" class="B"/><g class="C"><path d="M26.597 23.37h.102c3.21 0 5.046-3.068 5.146-5.99.065-1.893-.58-3.74-1.723-4.94-.867-.91-1.98-1.4-3.217-1.42h-.07c-3.2 0-4.972 3.187-5.03 6.2-.06 3 1.57 6.073 4.794 6.138m.105.99c-.042 0-.083-.001-.125-.001-3.874-.078-5.832-3.654-5.764-7.147s2.2-7.18 6.018-7.18h.087c1.51.022 2.865.62 3.92 1.726 1.323 1.39 2.07 3.504 1.996 5.657-.116 3.388-2.302 6.945-6.132 6.945"/><path d="M21.424 15.785c.003 1.08-.826 1.9-1.875 1.907s-1.87-.768-1.875-1.844a1.87 1.87 0 0 1 1.869-1.906c1.05-.016 1.878.763 1.88 1.843m9.815 2.965c-.077 2.134-1.798 3.487-3.887 3.403s-3.68-1.733-3.607-3.865 1.7-3.742 3.842-3.626 3.73 1.954 3.653 4.088"/></g></g><g transform="translate(8.756 31.083)"><mask id="T" class="B"><use xlink:href="#E"/></mask><path d="M3.93.024C2.255.1.74 1.202.053 2.825a19.81 19.81 0 0 0 1.153 7.369c1.067 2.974 2.625 5.08 3.696 6.317a24.87 24.87 0 0 1 .541-3.327c.69-2.954 1.817-5.338 2.855-7.1.16-.49.424-1.532.073-2.717C7.874 1.69 6.232.02 4.113.02L3.93.024" mask="url(#T)" class="E"/></g><path d="M9.3 34.02c-.072 2.422.307 4.807 1.127 7.09a19.36 19.36 0 0 0 2.875 5.267l.415-2.22c.585-2.508 1.555-4.927 2.882-7.19.18-.575.33-1.438.053-2.373-.448-1.515-1.97-3.072-3.943-3-1.45.065-2.777 1-3.408 2.417m4.357 14.07c-.14 0-.28-.06-.374-.17-1.66-1.92-2.934-4.097-3.788-6.474-.873-2.432-1.27-4.973-1.18-7.553a.5.5 0 0 1 .039-.176c.764-1.8 2.456-3.018 4.31-3.102 2.48-.114 4.368 1.775 4.937 3.698.357 1.207.155 2.304-.077 3.012-.01.034-.026.066-.044.097-1.29 2.19-2.233 4.533-2.8 6.96-.25 1.07-.428 2.166-.53 3.26-.018.198-.153.365-.342.425-.05.016-.1.024-.15.024" class="C"/><g transform="translate(8.756 18.526)"><mask id="U" class="B"><use xlink:href="#F"/></mask><path d="M2.548 4.73C1.04 7.637.49 10.47.124 13.83.06 14.408.06 14.93.058 15.48l-.024.727a4.62 4.62 0 0 1 3.641-1.643 4.63 4.63 0 0 1 4.513 4.351l.125-.2.1-.18c.205-.35.444-.66.703-.983l1.3-1.565 2.163-2.758a11.41 11.41 0 0 0 1.83-8.359c-.078-.472-.197-.943-.364-1.394-.31-.84-.785-1.615-1.454-2.206-.995-.88-2.1-1.25-3.208-1.25C6.605.01 3.8 2.313 2.548 4.73" fill="#fdbe10" mask="url(#U)"/></g><path d="M12.324 32.593l.118.001a5.15 5.15 0 0 1 4.752 3.538l.3-.373.045-.055 1.24-1.504 2.144-2.732c1.613-2.395 2.22-5.16 1.752-8.003-.075-.458-.2-.896-.34-1.302-.307-.83-.75-1.506-1.317-2.007a4.26 4.26 0 0 0-3.77-1.04c-2.107.393-4.367 2.2-5.496 4.367-1.472 2.84-2.012 5.622-2.37 8.926a11.63 11.63 0 0 0-.06 1.165c.868-.634 1.917-.98 3.013-.98m4.62 5.342a.5.5 0 0 1-.117-.014c-.2-.05-.365-.235-.378-.452-.126-2.13-1.896-3.837-4.03-3.886-1.252-.027-2.44.507-3.252 1.468a.5.5 0 0 1-.557.142c-.197-.076-.324-.27-.316-.48l.008-.2.016-.5.07-1.7c.37-3.415.934-6.3 2.476-9.275 1.065-2.055 3.393-4.362 6.193-4.884a5.27 5.27 0 0 1 4.608 1.272c.7.6 1.226 1.42 1.6 2.405a8.04 8.04 0 0 1 .388 1.485 11.89 11.89 0 0 1-1.908 8.716c-.66.98-1.438 1.904-2.2 2.795l-1.3 1.567c-.235.294-.467.6-.657.918l-.097.173-.1.15-.04.068c-.1.153-.254.243-.426.243M49 30.53c-.264 5.188-1.64 10.055-3.087 15.025-.996-.412-1.976-.705-3.05-.832-.415-.05-.84-.03-1.258-.03 2.875-6.6 3.628-12.537 3.122-19.706.94 1.348 1.557 2.638 1.893 4.276.224-2.295.45-7.776-2.482-13.768-3.078-6.292-7.864-9.528-9.828-10.7 1.1.266 2.657.75 4.35 1.687 4.884 2.7 7.323 6.943 8.04 8.994 1.655 4.737 2.56 9.873 2.297 15.06" class="C"/><g transform="translate(23.145 11.06)"><mask id="V" class="B"><use xlink:href="#G"/></mask><path d="M.01 1.53S1.98 4.568 7.835.036L.01 1.53z" mask="url(#V)" class="D"/></g><path d="M25.464 14.084a4.2 4.2 0 0 1-.716-.06c-1.393-.236-1.984-1.126-2-1.164-.15-.23-.084-.536.146-.685s.532-.084.682.14c.023.033.42.587 1.385.737 1.02.16 2.843-.12 5.725-2.35.217-.167.528-.128.694.088s.128.527-.088.694c-2.23 1.725-4.182 2.596-5.82 2.596m-9.67-1.446c-.148 0-.294-.066-.392-.192-.167-.216-.128-.527.088-.694C18.052 9.763 20.252 8.9 22.023 9.2c1.393.237 1.985 1.126 2 1.164.15.23.084.536-.146.685s-.532.084-.682-.14c-.023-.033-.42-.587-1.385-.737-1.02-.16-2.843.12-5.725 2.35-.1.07-.197.104-.303.104" class="C"/><g transform="translate(22.738 .54)"><mask id="W" class="B"><use xlink:href="#H"/></mask><path d="M2.372 2.82C.478 4.84.117 7.158.03 7.966l6.583-1.633c-.35-.297-1.156-1.07-1.267-2.2C5.182 2.474 6.572.66 8.84.023 8.22.03 4.898.13 2.372 2.82" mask="url(#W)" class="D"/></g><g transform="translate(22.262 .064)"><mask id="X" class="B"><use xlink:href="#I"/></mask><path d="M.505 8.936a.56.56 0 0 1-.054-.003c-.272-.03-.468-.274-.44-.546.13-1.18.62-3.456 2.475-5.43C5.018.26 8.35.015 9.31.004c.252 0 .46.18.496.424S9.7.908 9.45.975C7.514 1.518 6.165 3.06 6.312 4.56c.088.895.724 1.557 1.095 1.87.21.177.234.49.058.698s-.5.234-.698.058c-.485-.41-1.318-1.287-1.44-2.53-.113-1.146.4-2.3 1.32-3.195-1.104.367-2.354 1.02-3.44 2.174C1.552 5.4 1.112 7.437.996 8.494c-.028.254-.242.442-.492.442" mask="url(#X)" class="C"/></g><g transform="translate(10.995 48.39)"><mask id="Y" class="B"><use xlink:href="#J"/></mask><path d="M10.868.54L8.06 1.604l-.194.08-2.336 1.05-.048.023-.146.072c-.817.4-1.657.798-2.423 1.34-.182.13-.358.27-.522.438a2.88 2.88 0 0 0-.334.394c-.06.086-.117.174-.17.27-.24.434-.327.9-.382 1.416a17.75 17.75 0 0 1 1.605-.881 19.86 19.86 0 0 1 1.928-.818l.187-.066c.64-.225.63-.13-.015.124l-.187.075c-.655.265-1.3.568-1.937.91l-1.69 1.005c-.48.317-.988.713-1.222 1.37l-.067.227c-.184.776.14 1.478.678 1.827.56.363 1.222.292 1.82.262l1.955-.168.17-.02 1.864-.3.327-.07.172-.04 1.983-.515c-.145-.288-.232-.632-.232-1.046l.01-.25c.052-.707.326-1.274.692-1.75-.37-.692-.39-1.583-.035-2.378.256-.575.655-1.005 1.064-1.38.45-.41.924-.784 1.417-1.1-.02-.617.157-1.194.446-1.683l-1.57.51" mask="url(#Y)" class="D"/></g><path d="M12.05 58.438c.38.245.862.22 1.375.19l.152-.008 1.92-.165.163-.02 1.836-.297.315-.066.16-.036 1.458-.37c-.054-.224-.08-.462-.08-.7l.01-.29c.046-.633.248-1.213.615-1.764-.3-.78-.284-1.7.082-2.524.307-.69.793-1.188 1.182-1.544a11.28 11.28 0 0 1 1.26-1.003c.01-.21.04-.42.1-.628l-.558.192-2.787 1.056-.195.08-2.305 1.037-.37.18c-.738.36-1.5.734-2.18 1.215-.18.127-.328.25-.456.382a2.41 2.41 0 0 0-.282.332 2.32 2.32 0 0 0-.141.223l-.093.19c.21-.112 2.728-1.194 3.398-1.352.166-.04.35.013.47.13a.54.54 0 0 1 .137.502c-.047.177-.19.3-.362.36l-1.098.416-1.454.707-1.65.982c-.492.326-.856.64-1.028 1.123-.02.055-.037.115-.052.178-.124.52.06 1.03.466 1.295m.912 1.198c-.47 0-.98-.064-1.45-.367-.752-.488-1.1-1.435-.89-2.357l.08-.275c.262-.736.793-1.196 1.303-1.546a.48.48 0 0 1 .003-.065c.055-.518.147-1.07.44-1.603.06-.108.125-.21.2-.316a3.36 3.36 0 0 1 .39-.461 4.28 4.28 0 0 1 .584-.489c.744-.528 1.543-.92 2.317-1.297l.317-.156.068-.032 2.35-1.057.197-.08 2.83-1.072 1.594-.52c.195-.058.406.008.532.17s.14.38.037.557a2.63 2.63 0 0 0-.377 1.416c.005.175-.082.34-.23.432a9.96 9.96 0 0 0-1.35 1.047c-.338.31-.714.696-.946 1.216-.29.65-.282 1.377.02 1.944.09.17.074.38-.044.534-.358.466-.55.952-.59 1.484l-.008.212c0 .317.058.586.18.825.067.133.07.288.01.424s-.18.237-.322.277l-.22.06L18.2 59l-.187.042-.324.068-1.898.307-.18.022-1.983.17-.148.008-.516.018" class="C"/><g transform="translate(19.412 43.571)"><mask id="Z" class="B"><use xlink:href="#K"/></mask><path d="M8.865.598c-1.127.438-2.238.932-3.3 1.562-.802.477-1.6 1.033-2.28 1.76a3.94 3.94 0 0 0-.49.65l-.07.123c-.28.507-.463 1.108-.44 1.753L.43 11.834c-.093.168-.176.345-.244.53-.036.1-.068.205-.094.314-.15.624-.122 1.37.237 1.924l.042.06a1.47 1.47 0 0 0 .186.22c.307.31.695.46 1.06.557.525.138 1.06.203 1.587.27a22.33 22.33 0 0 0 3.529.166c1.78-.057 3.532-.33 5.254-.76l1.97-.85 1.405-1.4-.446-2.443L12 .028l-3.124.57z" mask="url(#Z)" class="E"/></g><path d="M25.436 59.953a22.93 22.93 0 0 1-2.882-.182l-.03-.003-1.622-.278c-.352-.094-.866-.267-1.284-.687a1.93 1.93 0 0 1-.234-.276l-.058-.084c-.398-.614-.508-1.456-.303-2.31a3.54 3.54 0 0 1 .109-.365 4.22 4.22 0 0 1 .277-.604c.133-.24.433-.326.673-.193s.326.434.193.673c-.087.156-.156.307-.212.46-.03.08-.056.17-.077.26-.14.583-.076 1.16.17 1.54.008.01.027.038.034.048a.96.96 0 0 0 .123.146c.198.2.456.332.842.434.482.127.994.19 1.49.252l.03.004c1.142.145 2.303.2 3.453.163 1.638-.052 3.357-.3 5.1-.735l1.847-.797 1.154-1.15-.395-2.164-2.8-9.938-2.635.48c-1.276.498-2.288.978-3.182 1.51-.935.556-1.625 1.087-2.17 1.67a3.44 3.44 0 0 0-.428.568l-.063.11c-.264.478-.395.995-.376 1.493.01.273-.202.503-.476.513-.274.02-.503-.203-.513-.476-.026-.678.147-1.374.5-2.012l.08-.137c.158-.263.344-.51.552-.733.61-.654 1.37-1.24 2.388-1.847.952-.565 2.024-1.073 3.372-1.598.03-.01.06-.02.09-.026l3.125-.57c.25-.047.496.107.565.353l2.928 10.395c.004.015.008.03.01.045l.446 2.443c.03.16-.022.324-.138.44l-1.405 1.4a.49.49 0 0 1-.153.104l-1.97.85a.5.5 0 0 1-.076.026c-1.835.458-3.638.72-5.358.774l-.725.01" class="C"/><g transform="translate(18.869 49.816)"><mask id="a" class="B"><use xlink:href="#L"/></mask><path d="M.083 4.127C.495 5.76 2.97 6.566 5.61 5.93L4.118.018C1.477.655-.33 2.494.083 4.127" mask="url(#a)" class="E"/></g><path d="M22.672 56.46c-2.12 0-3.823-.906-4.2-2.398-.172-.682-.042-1.4.378-2.104.725-1.2 2.228-2.174 4.02-2.607.266-.065.533.1.597.365s-.1.533-.365.597c-1.52.366-2.824 1.193-3.406 2.156-.195.323-.4.82-.265 1.35.34 1.345 2.6 2.005 4.932 1.443.268-.066.533.1.597.365s-.1.533-.365.597c-.66.16-1.3.235-1.923.235" class="C"/><g transform="translate(27.489 38.481)"><mask id="b" class="B"><use xlink:href="#M"/></mask><path d="M.766 5.64c-.333.63-1.05 1.98-.6 3.45.266.866.836 1.438 1.202 1.745l2 5.578c-.13.32-.634 1.662.015 2.825.58 1.04 1.704 1.5 2.712 1.54 4.85.188 8.186-1.936 8.186-1.936 1.22-.778 6.12-3.895 6.093-9.402-.014-2.968-1.5-6.105-4.04-7.873-1.54-1.067-3.253-1.5-4.968-1.5C6.704.063 2.023 3.27.766 5.64" mask="url(#b)" class="D"/></g><path d="M34.202 59.763c-.21 0-.42-.004-.635-.012-1.36-.053-2.528-.723-3.125-1.792-.71-1.274-.266-2.698-.042-3.25.103-.253.392-.375.645-.273s.376.392.273.645c-.17.42-.513 1.498-.01 2.398.633 1.135 1.92 1.27 2.3 1.286 4.642.177 7.87-1.84 7.9-1.86 4.867-3.1 5.875-6.595 5.864-8.982-.013-2.935-1.516-5.867-3.828-7.47-2.524-1.75-5.36-1.556-7.295-1.086-3.53.86-6.614 3.2-7.556 4.986-.31.584-.954 1.8-.563 3.072.175.567.527 1.075 1.047 1.51.2.176.237.488.06.697s-.488.237-.697.06c-.67-.56-1.126-1.227-1.358-1.98-.51-1.664.292-3.18.634-3.826 1.03-1.943 4.253-4.526 8.196-5.485 3.058-.744 5.855-.317 8.093 1.234 2.57 1.78 4.24 5.03 4.254 8.278.012 2.636-1.075 6.48-6.322 9.82-.136.087-3.238 2.026-7.837 2.026" class="C"/><g transform="translate(27.081 45.336)"><mask id="c" class="B"><use xlink:href="#N"/></mask><path d="M5.46.94C1.723 2.412-.653 5.405.234 7.83s4.664 3.275 8.438 1.896c1.014-.37 1.92-.867 2.692-1.438l2.964-7.12S12.77.023 9.98.023c-1.264 0-2.78.235-4.517.92" mask="url(#c)" class="D"/></g><g class="C"><path d="M32.176 56.22a8.38 8.38 0 0 1-1.833-.195c-1.764-.397-3.004-1.35-3.493-2.688-.975-2.668 1.394-5.9 5.5-7.52 5.763-2.267 9.198.184 9.34.3.22.162.268.472.105.692s-.472.268-.692.105c-.125-.1-3.167-2.222-8.393-.166-3.545 1.394-5.717 4.144-4.944 6.26.37 1 1.356 1.742 2.78 2.062 1.503.337 3.287.174 5.023-.46a10.2 10.2 0 0 0 2.567-1.37c.22-.162.53-.116.692.104s.116.53-.104.692a11.2 11.2 0 0 1-2.816 1.505c-1.254.458-2.537.692-3.747.692m-20.253 2.644a1.57 1.57 0 0 1-.794-1.102c-.013-.078-.04-.262.01-.544.147-.828.76-1.418 1.07-1.678-.103.588-.033 1.204.056 1.388.436.896 1.798 1.15 3.246.855l4.453-.648.233.918-1.962.475-.17.036-.57.107-1.607.238-.173.02-1.953.162c-.598.03-1.26.097-1.842-.227"/><path d="M33.744 59.357c-.613-.035-1.265-.314-1.8-.676a1.15 1.15 0 0 1-.14-.113 3.31 3.31 0 0 1-.962-1.55c-.1-.378-.115-.78-.078-1.165.212.608.65 1.252 1.2 1.554.697.388 1.385.484 2.116.438 2.003-.127 3.665-.52 5.562-1.262 1.668-.652 2.97-1.36 4.344-2.745s2.437-3.043 2.933-5.128c.386-1.623.36-3.56-.248-5.2.165.24.468.4.598.676.413.906.64 1.917.726 2.914.107 1.242-.05 2.408-.38 3.595a2.62 2.62 0 0 1-.087.256c-.42 1.07-1.025 2.18-1.772 3-1.58 1.756-3.213 3.084-5.324 3.998-1.12.486-2.083.74-3.234 1.008s-2.24.457-3.455.388m-7.437.01c-1.442.057-1.414.068-3.6-.177l-1.615-.242c-.37-.085-.765-.216-1.077-.478a1.35 1.35 0 0 1-.189-.187l-.042-.05c-.05-.06-.4-.584-.373-1.33.026-.68.353-1.162.496-1.35l.675.035c-.095.436-.132 1 .14 1.477.705 1.264 3.007 1.178 5.042 1.103a20.74 20.74 0 0 0 4.946-.795l.45 1.1c-2.045.667-3.74.848-4.86.892"/></g></g></g></svg>