<?xml version="1.0" encoding="UTF-8"?>
<svg width="60px" height="16px" viewBox="0 0 60 16" version="1.1" xmlns="http://www.w3.org/2000/svg" xmlns:xlink="http://www.w3.org/1999/xlink">
    <!-- Generator: Sketch 63.1 (92452) - https://sketch.com -->
    <title>logo</title>
    <desc>Created with Sketch.</desc>
    <g id="Home" stroke="none" stroke-width="1" fill="none" fill-rule="evenodd">
        <g id="247mirror-1680" transform="translate(-539.000000, -5131.000000)" fill="#FFFFFF">
            <g id="footer" transform="translate(0.000000, 4861.000000)">
                <g id="logos" transform="translate(539.000000, 267.000000)">
                    <g id="logo-white" transform="translate(0.000000, 3.000000)">
                        <g id="logo">
                            <path d="M9.95696203,15.6507699 L9.84455696,15.6507699 C9.32762363,15.6505965 8.83849941,15.4136438 8.51392405,15.0061538 L3.81417722,9.10615385 C3.80102433,9.09101925 3.78008935,9.0855373 3.76134201,9.09231861 C3.74259467,9.09909993 3.72982488,9.11677363 3.72911392,9.13692308 L3.72911392,13.7661538 C3.72951738,14.2661101 3.5336032,14.7457068 3.18455561,15.0992294 C2.83550802,15.452752 2.36198211,15.6511779 1.86835443,15.6507699 L1.86835443,15.6507699 C0.840685339,15.6507699 0.00759493671,14.8069982 0.00759493671,13.7661538 L0.00759493671,2.01538462 C0.00759493671,0.974540279 0.840685339,0.130768283 1.86835443,0.130768283 L1.86835443,0.130768283 C2.36198211,0.130360603 2.83550802,0.328786501 3.18455561,0.682309063 C3.5336032,1.03583163 3.72951738,1.51542838 3.72911392,2.01538462 L3.72911392,5.89692308 C3.72921826,5.91735124 3.74176799,5.93559173 3.7606536,5.94276463 C3.77953922,5.94993753 3.80083642,5.94455237 3.81417722,5.92923077 L8.20253165,0.735384615 C8.52730733,0.35117566 9.00188419,0.130240173 9.50126582,0.130768283 L9.50126582,0.130768283 C10.1717153,0.131064466 10.7800551,0.528416781 11.0568972,1.14686875 C11.3337393,1.76532071 11.2279319,2.49060135 10.7863291,3.00153846 L7.0678481,7.30923077 C7.00836088,7.38080327 7.00836088,7.48535058 7.0678481,7.55692308 L11.284557,12.8384615 C11.6943616,13.3570109 11.7750216,14.0673467 11.4921433,14.6665812 C11.2092651,15.2658156 10.6127536,15.6482327 9.95696203,15.6507699 Z" id="Path" fill-rule="nonzero"></path>
                            <path d="M21.7883544,3.45692239 C22.2524204,3.4565092 22.6975081,3.64346052 23.0250817,3.9763888 C23.3526553,4.30931708 23.5356923,4.760758 23.5336875,5.23076923 L23.5017722,10.7907692 C23.4789873,13.8061538 21.2688608,15.8907692 17.9407595,15.8907692 C14.6126582,15.8907692 12.3372145,13.8061538 12.3372145,10.7907692 L12.3372145,5.23076923 C12.3368117,4.76182292 12.5205631,4.31196598 12.847961,3.98037074 C13.1753588,3.64877549 13.6195214,3.46266826 14.0825316,3.46307692 L14.0931646,3.46307692 C14.5561748,3.46266826 15.0003374,3.64877549 15.3277352,3.98037074 C15.6551331,4.31196598 15.8388845,4.76182292 15.838481,5.23076923 L15.838481,10.6615385 C15.838481,11.9046154 16.6921519,12.7461538 17.9407595,12.7461538 C19.1893671,12.7461538 20.0506329,11.9046154 20.0506329,10.6615385 L20.0506329,5.23076923 C20.0502294,4.76182292 20.2339809,4.31196598 20.5613787,3.98037074 C20.8887765,3.64877549 21.3329391,3.46266826 21.7959494,3.46307692 L21.7883544,3.45692239 Z" id="Path" fill-rule="nonzero"></path>
                            <path d="M36.3402532,10.9061538 L28.1650633,10.9061538 C28.4640635,11.7038959 29.1037949,12.3214963 29.9048594,12.5857629 C30.7059238,12.8500296 31.5820672,12.7325078 32.2875949,12.2661538 C32.8324422,11.9019264 33.5410663,11.9092313 34.078481,12.2846154 L34.078481,12.2846154 C34.527116,12.5972223 34.7887269,13.1188361 34.7733848,13.6701517 C34.7580428,14.2214673 34.4678391,14.7273289 34.0025316,15.0138462 C33.0324544,15.597115 31.9208374,15.8944339 30.7929114,15.8723077 C27.2901266,15.8723077 24.7291139,13.1461538 24.7291139,9.55384615 C24.7291139,5.96153846 27.2901266,3.23076923 30.7929114,3.23076923 C34.7422785,3.23076923 37.0405063,6.76923077 36.716962,10.5446154 C36.7028256,10.7457706 36.539335,10.9026773 36.3402532,10.9061538 L36.3402532,10.9061538 Z M28.3625316,8.46153846 L33.0713924,8.46153846 C33.1333119,8.46114373 33.191217,8.43043326 33.2268071,8.37911295 C33.2623973,8.32779265 33.2712744,8.26220434 33.2506329,8.20307692 C32.9058228,7.21230769 32.0779747,6.42153846 30.7670886,6.42153846 C29.5518987,6.42153846 28.5918987,7.09076923 28.1848101,8.2 C28.1630109,8.25923821 28.1711021,8.32552122 28.2064898,8.3775984 C28.2418775,8.42967558 28.3001152,8.46100356 28.3625316,8.46153846 L28.3625316,8.46153846 Z" id="Shape" fill-rule="nonzero"></path>
                            <path d="M49.2789873,10.9061538 L41.1037975,10.9061538 C41.4027977,11.7038959 42.0425291,12.3214963 42.8435935,12.5857629 C43.644658,12.8500296 44.5208014,12.7325078 45.2263291,12.2661538 C45.7716485,11.9016577 46.4808465,11.9089624 47.0187342,12.2846154 L47.0187342,12.2846154 C47.4665029,12.5979549 47.7272671,13.1195333 47.7116271,13.6705337 C47.6959872,14.2215341 47.4060684,14.7270781 46.9412658,15.0138462 C45.9711886,15.597115 44.8595715,15.8944339 43.7316456,15.8723077 C40.2288608,15.8723077 37.6678481,13.1461538 37.6678481,9.55384615 C37.6678481,5.96153846 40.2288608,3.23076923 43.7316456,3.23076923 C47.6810127,3.23076923 49.9792405,6.76923077 49.6556962,10.5446154 C49.6415598,10.7457706 49.4780691,10.9026773 49.2789873,10.9061538 Z M41.3012658,8.46153846 L46.0101266,8.46153846 C46.0720461,8.46114373 46.1299512,8.43043326 46.1655413,8.37911295 C46.2011314,8.32779265 46.2100086,8.26220434 46.1893671,8.20307692 C45.844557,7.21230769 45.0167089,6.42153846 43.7058228,6.42153846 C42.4906329,6.42153846 41.5306329,7.09076923 41.1235443,8.2 C41.1017451,8.25923821 41.1098363,8.32552122 41.145224,8.3775984 C41.1806116,8.42967558 41.2388493,8.46100356 41.3012658,8.46153846 L41.3012658,8.46153846 Z" id="Shape" fill-rule="nonzero"></path>
                            <path d="M55.2987342,12.6569231 L58.3837975,12.6569231 C59.2000603,12.6569231 59.8617722,13.3271184 59.8617722,14.1538462 L59.8617722,14.1538462 C59.8617722,14.9805739 59.2000603,15.6507713 58.3837975,15.6507713 L50.4501266,15.6507713 C50.3161764,15.6512183 50.1919828,15.5798761 50.1236173,15.4632081 C50.0552518,15.3465402 50.052913,15.2019505 50.1174684,15.0830769 L54.5863291,6.73384615 C54.6184325,6.67442273 54.6173011,6.60227543 54.5833507,6.54391454 C54.5494004,6.48555364 54.4876386,6.44958713 54.4207595,6.44923077 L51.6455696,6.44923077 C51.2535864,6.44923077 50.8776577,6.29151968 50.6004837,6.01079215 C50.3233097,5.73006462 50.1675949,5.34931638 50.1675949,4.95230769 L50.1675949,4.95230769 C50.1684332,4.12618078 50.8298996,3.45692302 51.6455696,3.45692302 L59.281519,3.45692302 C59.4153634,3.45692302 59.5393632,3.52814129 59.6079046,3.6445778 C59.676446,3.76101431 59.6794062,3.90539746 59.6156962,4.02461538 L55.1392405,12.3738462 C55.1083206,12.4322038 55.1092253,12.5025694 55.141635,12.5600918 C55.1740448,12.6176142 55.2333985,12.6541981 55.2987342,12.6569231 Z" id="Path" fill-rule="nonzero"></path>
                        </g>
                    </g>
                </g>
            </g>
        </g>
    </g>
</svg>