<svg xmlns="http://www.w3.org/2000/svg" width="141" height="23"><path d="M139.79 19.793c-2.475-3.57-34.13 3.447-36.872-.475-.907-1.32-.374-2.656.054-2.04 2.938 4.24 34.593-2.69 37.193 1.02.34.493.23 2.356-.374 1.495zm-1.648-6.17c-.553 0 .266-.94-.287-.94-2.235 0-7.788 3.3-9.8 3.3-1.1 0-1.867-.842-2.007-1.987-1.1.94-2.62 2.01-4.21 2.01-1.24 0-2.057-1.05-2.057-2.382-.806.73-2.636 2.36-3.143 2.36-.222 0-.686-.328-.686-1.683 0-.502.1-1.07.266-1.64-1.306 1.617-3.12 3.323-4.16 3.323-.222 0-1.018-.657-1.018-1.706 0-.256.03-.527.078-.806-.724.676-2.73 2.49-3.243 2.49-.22 0-.708-.35-.708-1.683 0-.35.045-.742.133-1.136-.885 1.268-2.1 2.82-2.854 2.82-1.017 0-1.748-.896-1.748-2.076 0-2.207 2.545-5.55 5.288-5.55.575 0 .907.437 1.084.853.354-.525.686-.853.862-.853.775 0 1.593.525 1.593.962 0 .328-2.013 2.644-2.632 4.677.376-.306 2.2-1.683 2.456-1.923.065-.066.138-.123.22-.17.692-1.82 1.858-3.503 2.193-3.503.797 0 1.75.6 1.75 1.224 0 .197-2.898 4.306-2.323 4.306.885 0 4.868-5.53 5.53-5.53.775 0 1.593.525 1.593.962 0 .305-2.013 2.622-2.655 4.654.376-.284 2.2-1.682 2.456-1.923l.02-.017c.89-2.055 3.255-3.74 4.515-3.74.885 0 1.637.48 1.637 1.398 0 1.267-.93 1.923-1.815 1.923-.752 0-.752-.568-.442-.568 1.128 0 1.75-1.137.907-1.137-1.084 0-3.185 2.23-3.185 3.87 0 1.774 3.08-.268 4.447-1.265.696-2.243 3.313-4.176 4.667-4.176.864 0 1.616.48 1.616 1.573 0 .874-1.394 2.972-3.054 2.972-.422.006-.813-.22-1.018-.59-.265.502-.42 1.026-.42 1.508 0 .24.133.546.553.546 1.726 0 6.68-3.147 8.01-3.147 2.058 0 2.72 2.404 1.593 2.404h0zm-29.65-4.022c-1.924 0-4.49 4.306-3.606 4.306.554 0 3.762-4.11 3.828-4.197.02-.02.044-.044.066-.087-.09-.023-.178-.023-.288-.023h0zm22.635.35c-.663 0-1.68.852-2.39 1.88 1.26-.197 2.942-1.88 2.39-1.88zm-30.744.57c-.698-.054-1.76-.543-1.193-2.484s2.385-2.555 2.385-2.555c-.77.76-.843 2.628-.843 2.628 3.43-2.085 3.78-5.746 3.78-5.746-4.642-.508-10.277 7.18-9.25 7.685 2.22 1.124 3.725 2.085 4.734 2.92 2.808 2.394 2.203 5.312.295 7.47-1.89 2.14-3.9 1.45-5.102.453-1.192-1.015-.77-2.12.422-3.644s3-2.43 3-2.43c.57-.126.57.544.57.544-2.165 1.94-2.808 4.514-2.808 4.514 4.625-2.43 4.46-5.203 1.34-6.78-3.78-1.922-4.294-2.683-4.588-3.952-.294-1.36 1.01-3.118 2.698-4.912 1.67-1.795 6.294-4.84 8.955-3.317 2.68 1.523 2.037 2.92 2.037 2.92-1.9 4.242-5.744 6.762-6.44 6.69h0zM89.07 13.57c0-1.67-.595-2.546-2.46-2.546-1.352 0-2.397 1.1-2.397 2.485v5.253h-3.177V13.57c0-1.67-.595-2.546-2.46-2.546-1.352 0-2.398 1.1-2.398 2.485a436.24 436.24 0 0 0 0 5.253H72.94V8.274h3.197V9.1c.02-.02 1.107-1.182 2.828-1.182 2.337 0 3.67.917 4.406 2.16a5.04 5.04 0 0 1 1.086-1.242C85.482 8 86.794 7.806 88.187 8c3.32.53 4.058 3.34 4.058 5.56v5.192H89.07V13.57zm-20.576 4.358c-.02.02-1.107 1.182-2.808 1.182-4.323 0-5.246-3.178-5.246-5.64V8.274h3.177v5.194c0 1.67.573 2.545 2.44 2.545 1.352 0 2.376-1.08 2.397-2.463l.042-5.276h3.176v10.488h-3.176v-.835zm-9.858.204c-.43.326-.943.57-1.496.734-.6.19-1.205.285-1.824.285-.72.008-1.436-.116-2.11-.367-.574-.204-1.107-.49-1.517-.896-1.004-1.018-1.188-1.79-1.188-2.505h2.99c0 .958.922 1.426 1.825 1.426.594 0 1.762-.305 1.762-1.1 0-.998-1.68-1.242-2.582-1.364-.86-.102-1.783-.326-2.562-.814-.738-.43-1.25-1.182-1.25-2.118 0-1.915 2.03-3.463 4.51-3.463 1.394 0 2.54.326 3.38.937 1.045.774 1.148 1.65 1.148 2.2h-2.726c0-.713-1.25-.896-1.783-.896-.635 0-1.557.163-1.557.978 0 .55.86.692 1.946.855.963.143 2.05.326 2.93.835a3.05 3.05 0 0 1 1.106 1.06c.123.244.246.51.307.794a3.78 3.78 0 0 1 .123.998c0 .468-.144.917-.39 1.345-.266.43-.623.8-1.046 1.08h0zm-10.882 0c-.43.326-.943.57-1.496.734a5.99 5.99 0 0 1-1.824.285c-.72.008-1.436-.116-2.11-.367-.574-.204-1.107-.49-1.517-.896-1.004-1.018-1.188-1.79-1.188-2.505H42.6c0 .958.92 1.426 1.824 1.426.595 0 1.762-.305 1.762-1.1 0-.998-1.68-1.242-2.582-1.364-.86-.102-1.783-.326-2.562-.814-.738-.43-1.25-1.182-1.25-2.118 0-1.915 2.03-3.463 4.51-3.463 1.394 0 2.54.326 3.38.937 1.045.774 1.148 1.65 1.148 2.2h-2.726c0-.713-1.25-.896-1.783-.896-.635 0-1.557.163-1.557.978 0 .55.86.692 1.947.855.963.143 2.05.326 2.93.835a3.05 3.05 0 0 1 1.106 1.06c.123.244.246.51.307.794a3.78 3.78 0 0 1 .123.998c0 .468-.144.917-.39 1.345-.266.43-.623.8-1.046 1.08h0zm-10.595-.61c-.506.518-1.113.928-1.783 1.202a5.42 5.42 0 0 1-2.193.448 5.76 5.76 0 0 1-2.192-.427c-.67-.287-1.28-.695-1.803-1.202a5.8 5.8 0 0 1-1.21-1.772c-.286-.69-.432-1.43-.43-2.178-.02-.754.143-1.487.43-2.18.287-.672.698-1.284 1.2-1.793s1.107-.916 1.783-1.2a5.78 5.78 0 0 1 2.192-.449c.76 0 1.496.144 2.193.45.673.27 1.285.673 1.803 1.18a5.87 5.87 0 0 1 1.209 1.792 6.08 6.08 0 0 1 .451 2.179c0 .753-.164 1.486-.45 2.178-.284.664-.694 1.266-1.21 1.772h0zM33.16 10.76c-1.556-.001-2.82 1.256-2.828 2.81.001.753.302 1.476.836 2.007s1.258.828 2.012.824c1.56-.008 2.822-1.27 2.83-2.83 0-1.57-1.27-2.81-2.85-2.81h0zm-7.788 6.66c-.515.507-1.12.915-1.783 1.202a5.79 5.79 0 0 1-2.214.427 5.76 5.76 0 0 1-2.192-.427 7.01 7.01 0 0 1-1.25-.734V23h-3.176V8.274h3.176v.734a7.01 7.01 0 0 1 1.25-.734 5.76 5.76 0 0 1 2.192-.428 5.79 5.79 0 0 1 2.214.428c.663.287 1.268.695 1.783 1.202.5.518.92 1.125 1.2 1.793.286.692.45 1.425.45 2.18s-.164 1.486-.45 2.178c-.29.667-.7 1.275-1.2 1.793h0zm-3.996-6.803a2.83 2.83 0 0 0-2.828 2.832 2.83 2.83 0 0 0 2.828 2.831c.754.004 1.478-.292 2.012-.824s.836-1.253.836-2.007-.3-1.476-.836-2.008-1.26-.828-2.013-.824h0zM6.436 19.13c-1.9.005-3.72-.758-5.047-2.115.74-.024 2.55-.003 2.934-.012-.136-.23-.498-.44-.853-.48-.285-.03-.58.05-.8-.084a3.76 3.76 0 0 1 .631-.872c.078-.08.527-.5.648-.57.108-.06.313-.155.425-.2.204-.08.455-.14.7-.2.36-.09.702-.222 1.125-.235.388-.012.778.045 1.178.017.436-.032 1.045-.118 1.603-.085.426.027.836.148 1.245.134.166-.005.314-.042.392-.167.243.165.618.127.903 0 .063-.028.124-.127.205-.184.026-.017.067 0 .086-.017.27-.255.4-.615.09-.88a.95.95 0 0 0-.379-.208c-.385-.34-.79-.64-1.21-.973-.132-.105-.602-.658-.7-.82-.24-.4-.504-.79-.768-1.173-.14-.2-.257-.415-.41-.62-.078.02-.036.095-.033.167-.122-.092-.167-.26-.3-.35-.08.006-.01.108-.017.15-.12-.107-.186-.264-.324-.352-.015.02-.022.045-.017.085-.067-.07-.13-.228-.222-.22-.028.055.003.064 0 .134-.07-.05-.073-.163-.187-.167-.026.025-.026.11 0 .134-.15-.054-.177-.228-.3-.318-.047.072.03.144.034.217-.092-.02-.17-.2-.24-.3-.064-.012-.032.117-.017.134-.126-.055-.122-.237-.255-.285-.01.108.014.186.033.268-.1-.04-.174-.254-.255-.37-.115.026-.001.166-.017.252-.06-.058-.077-.16-.137-.22-.08.01-.05.13-.067.2-.132-.256-.25-.445-.342-.687-.074-.2-.12-.49-.306-.704-.2-.23-.698-.343-1.142-.302-.357.033-.78.238-1.058.47-.226.2-.408.554-.187.872-.043.117-.153.165-.3.1-.105-.05-.374-.304-.46-.485-.096-.203-.098-.56-.222-.68.06.195.07.403.083.563-.18-.112-.33-.293-.49-.47l-.18-.062c1.314-1.274 3.073-1.984 4.903-1.98 3.873 0 7.008 3.137 7.008 6.986S10.31 19.13 6.436 19.13h0zM1.73 15.1c.055.015.065-.014.086-.033.093.45-.016.79-.187 1.106-.14.26-.337.424-.297.783-.554-.58-1.004-1.25-1.33-1.982l.024-.008c.02.048.054.15.136.084-.005.05.001.102.017.15.16-.06.197-.242.375-.285.04.024.014.11.086.1.043-.07.078-.147.153-.184.052.06.03.194.103.235.096-.072.13-.206.255-.252.055.048.01.194.07.235.084-.046.126-.133.222-.167.052.043.056.135.085.2.088-.01.06-.133.137-.15a.27.27 0 0 1 .068.167h0z" fill="#fff" fill-rule="evenodd"/></svg>