<?xml version="1.0" standalone="no"?>
<!DOCTYPE svg PUBLIC "-//W3C//DTD SVG 20010904//EN"
 "http://www.w3.org/TR/2001/REC-SVG-20010904/DTD/svg10.dtd">
<svg version="1.0" xmlns="http://www.w3.org/2000/svg"
 width="512.000000pt" height="512.000000pt" viewBox="0 0 512.000000 512.000000"
 preserveAspectRatio="xMidYMid meet">
<metadata>
Created by potrace 1.11, written by Peter Selinger 2001-2013
</metadata>
<g transform="translate(0.000000,512.000000) scale(0.100000,-0.100000)"
fill="#000000" stroke="none">
<path d="M0 2560 l0 -2560 1229 0 1229 0 6 31 c3 17 6 46 6 63 0 29 4 33 60
54 130 51 214 165 214 292 1 80 -13 128 -57 201 l-33 56 27 53 c32 63 42 129
30 195 -5 28 -8 52 -6 54 5 5 145 -71 211 -115 70 -47 157 -141 171 -187 l11
-37 -37 6 c-43 7 -65 -11 -59 -48 2 -18 18 -28 75 -49 136 -50 220 -119 245
-200 38 -127 -117 -213 -335 -187 -58 7 -82 6 -93 -2 -21 -18 -17 -57 6 -70
50 -27 220 -29 313 -5 27 7 28 6 21 -21 -3 -16 -15 -41 -25 -56 l-20 -28 966
0 965 0 0 2560 0 2560 -2560 0 -2560 0 0 -2560z m2686 1004 c64 -21 92 -25
170 -23 87 3 96 1 120 -22 77 -72 144 -223 158 -357 7 -61 6 -63 -28 -105 -51
-63 -95 -164 -113 -259 -8 -46 -18 -90 -22 -98 -13 -24 -111 -70 -171 -79
-172 -27 -331 62 -415 232 -121 247 -62 557 134 698 30 21 62 39 72 39 10 0
53 -12 95 -26z m756 -30 c74 -38 124 -151 115 -261 -2 -35 -7 -66 -9 -68 -2
-3 -21 -2 -41 2 -31 5 -37 10 -37 30 0 120 -155 187 -250 106 -17 -14 -33 -23
-36 -21 -9 10 18 104 42 146 49 83 131 108 216 66z m-1082 -19 c0 -2 -14 -27
-31 -56 -144 -244 -105 -594 87 -787 134 -134 336 -175 502 -102 24 11 48 17
53 14 5 -3 9 -23 9 -45 0 -56 26 -177 56 -256 49 -130 110 -225 279 -428 50
-60 97 -118 104 -127 11 -15 6 -22 -50 -58 -74 -48 -176 -82 -315 -105 -209
-35 -527 18 -724 121 -270 141 -441 441 -481 844 -36 369 100 750 323 904 65
44 188 98 188 81z m1162 -396 c120 -25 285 -140 372 -258 80 -108 157 -298
200 -492 27 -124 64 -394 54 -404 -3 -3 -21 3 -39 14 -62 36 -146 54 -230 49
-144 -8 -278 -98 -345 -230 l-25 -48 -124 151 c-189 227 -238 307 -290 469
-22 69 -28 109 -32 215 -9 249 55 410 194 492 87 51 164 63 265 42z m528
-1207 c25 -13 58 -36 74 -50 28 -27 28 -28 21 -112 -20 -257 -110 -521 -251
-737 -65 -101 -60 -105 -94 57 -32 152 -82 296 -157 452 l-66 137 13 46 c26
94 103 178 198 216 68 28 200 23 262 -9z"/>
<path d="M2600 3311 c-221 -72 -303 -341 -154 -501 61 -65 127 -93 224 -94 99
0 163 28 229 99 133 147 92 386 -84 478 -44 22 -170 33 -215 18z"/>
</g>
</svg>
