<?xml version="1.0" encoding="UTF-8"?>
<svg width="104px" height="16px" viewBox="0 0 104 16" version="1.1" xmlns="http://www.w3.org/2000/svg" xmlns:xlink="http://www.w3.org/1999/xlink">
    <!-- Generator: Sketch 63.1 (92452) - https://sketch.com -->
    <title>fun</title>
    <desc>Created with Sketch.</desc>
    <g id="Home" stroke="none" stroke-width="1" fill="none" fill-rule="evenodd">
        <g id="247mirror-1680" transform="translate(-915.000000, -5134.000000)" fill="#FFFFFF" fill-rule="nonzero">
            <g id="footer" transform="translate(0.000000, 4861.000000)">
                <g id="logos" transform="translate(539.000000, 267.000000)">
                    <g id="fun" transform="translate(376.000000, 6.000000)">
                        <path d="M9.72593548,0.808258065 L9.72593548,3.36 L6.19045161,3.36 L6.19045161,13.5824516 L3.63974194,13.5824516 L3.63974194,3.35896774 L0.0867096774,3.35896774 L0.0867096774,0.808258065 L9.72593548,0.808258065 Z M13.7889032,6.2203871 C14.4629677,5.76516129 15.2650323,5.4916129 16.1393548,5.4916129 C18.4350968,5.4916129 20.2941935,7.36825806 20.2941935,9.66503226 L20.2941935,13.5824516 L17.8890323,13.5824516 L17.8890323,9.664 C17.8890323,9.09935484 17.6701935,8.57083871 17.2872258,8.15174194 C16.9042581,7.75122581 16.3943226,7.5323871 15.8472258,7.5323871 C15.300129,7.5323871 14.7726452,7.75122581 14.3896774,8.15174194 C14.0067097,8.57083871 13.787871,9.09935484 13.787871,9.664 L13.787871,13.5814194 L11.3651613,13.5814194 L11.3651613,0.0247741935 L13.7889032,0.0247741935 L13.7889032,6.2203871 L13.7889032,6.2203871 Z M28.7132903,12.3427097 C27.9659355,13.2356129 26.8180645,13.8002581 25.5607742,13.8002581 C23.2650323,13.8002581 21.3873548,11.9236129 21.3873548,9.62683871 C21.3873548,7.31251613 23.264,5.45445161 25.5607742,5.45445161 C27.8575484,5.45445161 29.7341935,7.31354839 29.7341935,9.62683871 C29.7341935,9.88180645 29.7156129,10.1192258 29.6609032,10.3741935 L23.7935484,10.3741935 C23.9029677,10.6663226 24.0485161,10.9212903 24.2487742,11.140129 C24.6317419,11.5592258 25.1230968,11.7780645 25.6516129,11.7780645 C26.144,11.7780645 26.6353548,11.5592258 26.9997419,11.1948387 L28.7132903,12.3427097 Z M27.5282581,8.98993548 C27.4374194,8.66167742 27.2732903,8.352 27.035871,8.09703226 C26.6714839,7.69651613 26.1615484,7.47767742 25.6505806,7.47767742 C25.1220645,7.47767742 24.6296774,7.69651613 24.2477419,8.09703226 C24.0289032,8.352 23.8647742,8.66167742 23.7553548,8.98993548 L27.5282581,8.98993548 Z" id="Shape"></path>
                        <path d="M77.7094194,0.808258065 C79.8234839,0.808258065 81.536,2.53935484 81.536,4.65341935 C81.536,6.76748387 79.8234839,8.48 77.7094194,8.48 L76.123871,8.48 L76.123871,13.5824516 L73.5731613,13.5824516 L73.5731613,0.808258065 L77.7094194,0.808258065 Z M77.7094194,5.92825806 C78.4020645,5.92825806 78.9852903,5.3636129 78.9852903,4.6523871 C78.9852903,3.94219355 78.4020645,3.35896774 77.7094194,3.35896774 L76.123871,3.35896774 L76.123871,5.92825806 L77.7094194,5.92825806 Z M89.7734194,9.64645161 C89.7734194,11.9607742 87.8420645,13.8012903 85.4183226,13.8012903 C83.0131613,13.8012903 81.0807742,11.9607742 81.0807742,9.64645161 C81.0807742,7.35070968 83.012129,5.4916129 85.4183226,5.4916129 C87.8410323,5.4916129 89.7734194,7.34967742 89.7734194,9.64645161 L89.7734194,9.64645161 Z M87.4766452,9.62787097 C87.4766452,9.06322581 87.2763871,8.53470968 86.8934194,8.13419355 C86.4929032,7.71509677 86.0005161,7.49625806 85.435871,7.49625806 C84.9073548,7.49625806 84.3788387,7.71509677 84.0144516,8.13419355 C83.5953548,8.53470968 83.3950968,9.08180645 83.3950968,9.64645161 C83.3950968,10.2296774 83.5953548,10.7581935 84.0144516,11.1772903 C84.3788387,11.5778065 84.9073548,11.7966452 85.435871,11.7966452 C86.0005161,11.7966452 86.4929032,11.5778065 86.8934194,11.1772903 C87.2763871,10.7571613 87.4766452,10.2110968 87.4766452,9.62787097 L87.4766452,9.62787097 Z M91.4301935,10.9037419 C92.5780645,12.2157419 94.3277419,12.2704516 94.3277419,11.2867097 C94.3277419,10.7034839 93.7630968,10.5207742 93.179871,10.3390968 C91.6490323,9.86529032 90.592,9.39148387 90.592,7.87922581 C90.592,6.43922581 91.8854194,5.49264516 93.380129,5.49264516 C94.7282581,5.49264516 95.4580645,5.78374194 96.5140645,6.42167742 L95.4570323,8.07948387 C93.9261935,6.98632258 92.8877419,7.07716129 92.7783226,7.91535484 C92.6874839,8.49858065 93.5432258,8.608 94.4547097,8.91767742 C95.5664516,9.24593548 96.6049032,9.99225806 96.6049032,11.3414194 C96.6049032,12.5987097 95.3114839,13.8012903 93.7073548,13.8012903 C92.2859355,13.8012903 90.9378065,13.3460645 89.9716129,12.379871 L91.4301935,10.9037419 L91.4301935,10.9037419 Z M103.274323,5.728 L103.274323,7.8596129 L101.452387,7.8596129 L101.452387,13.5814194 L99.1380645,13.5814194 L99.1380645,7.86064516 L97.4978065,7.86064516 L97.4978065,5.728 L99.1380645,5.728 L99.1380645,2.81290323 L101.452387,2.81290323 L101.452387,5.728 L103.274323,5.728 L103.274323,5.728 Z" id="Shape"></path>
                        <path d="M39.8833548,3.35896774 L33.924129,3.35896774 L33.924129,5.70941935 L38.843871,5.70941935 L38.843871,8.26116129 L33.924129,8.26116129 L33.924129,13.5824516 L31.3723871,13.5824516 L31.3723871,0.808258065 L39.8823226,0.808258065 L39.8823226,3.35896774 L39.8833548,3.35896774 Z M65.6103226,6.42064516 C66.2296774,5.87354839 67.0503226,5.50916129 67.8513548,5.50916129 C69.9654194,5.50916129 71.6965161,7.36825806 71.6965161,9.68258065 L71.6965161,13.5824516 L69.4730323,13.5824516 L69.4730323,9.68258065 C69.4730323,8.55225806 68.6709677,7.55096774 67.5778065,7.55096774 C66.4846452,7.55096774 65.6825806,8.55329032 65.6825806,9.68258065 L65.6825806,13.5824516 L63.3868387,13.5824516 L63.3868387,5.728 L65.2459355,5.728 L65.6103226,6.42064516 L65.6103226,6.42064516 Z M51.0596129,15.9504516 C45.4585806,15.9504516 40.9021935,11.3940645 40.9021935,5.79303226 L43.1793548,5.79303226 C43.1793548,10.1378065 46.7148387,13.6732903 51.0596129,13.6732903 C55.4043871,13.6732903 58.939871,10.1378065 58.939871,5.79303226 L61.2170323,5.79303226 C61.2170323,11.3940645 56.6606452,15.9504516 51.0596129,15.9504516 Z" id="Shape"></path>
                    </g>
                </g>
            </g>
        </g>
    </g>
</svg>