<svg xmlns="http://www.w3.org/2000/svg" xmlns:xlink="http://www.w3.org/1999/xlink" width="101" height="23"><defs><path id="A" d="M0 .116h18.873V19.33H0z"/><path id="B" d="M.143.123h11.28V19.61H.143z"/></defs><g fill="none" fill-rule="evenodd"><path d="M26.813 11.56c-.093-.005-.24-.08-.444-.227-.303-.213-.574-.22-.815-.022-.113.1-.203.116-.27.078-.052-.056-.04-.138.04-.248a.8.8 0 0 1 .318-.257c.1-.025.14-.047.155-.064l-.232.004c-.183.02-.356.134-.518.338a4.5 4.5 0 0 0-.666 1.272c-.166.492-.25.915-.226 1.267.036.707-.016 1.07-.153 1.085s-.166.368-.087 1.054c.058.504.17.843.337 1.017s.404.182.7.022c.5-.275 1.016-1.045 1.52-2.3.18-.44.235-.677.16-.715s-.093-.167-.056-.388a1.65 1.65 0 0 0 .015-.675c-.026-.23-.014-.35.04-.364s.13.1.233.3c.04.088.07.07.086-.056.012-.032.016-.064.013-.094.05-.64-.005-.982-.165-1.025M54.812 8.58a.92.92 0 0 0-.073-.235c-.03-.058-.053-.1-.07-.097s-.04-.007-.07-.004c-.058.038-.18-.02-.37-.178s-.294-.27-.318-.346c-.02-.183.07-.2.27-.078a.57.57 0 0 1 .153.122l.284.246-.172-.282c-.13-.186-.252-.303-.366-.353-.364-.205-.772.012-1.224.65-.572.8-.85 1.947-.836 3.415l.055.887c.03.128.1.187.183.176.06-.007.106.01.134.054s.053.156.074.34c.045.258.038.398-.02.42-.075.024-.045.152.1.384.133.217.258.365.376.444s.27.124.456.133c.372.003.682-.187.932-.572.304-.453.52-1.165.647-2.14s.1-1.83-.052-2.57l-.083-.42" fill="#fff"/><g transform="translate(0 3.405)"><mask id="C" fill="#fff"><use xlink:href="#A"/></mask><path d="M6.418 7.346c.04-.175.108-.206.198-.092.05.04.082.106.092.198.02.168.064.356.135.565.1.33.088.493-.036.492-.063-.008-.148-.18-.256-.516s-.153-.55-.133-.646h0zM7.146 18.7l-1.002-2.355-.737-1.865c-.008-.068-.065-.09-.17-.062-.06.007-.116-.03-.163-.11s-.138-.29-.27-.63l-.2-.534c-.045-.118-.076-.22-.093-.302s-.02-.133-.006-.15.043-.028.09-.033c.076-.01.094-.058.053-.146L3.75 10.16l-.836-2.224c-.002-.015-.04-.02-.117-.01-.06.007-.125-.047-.193-.163s-.18-.382-.335-.797c-.192-.457-.26-.72-.207-.788.04-.066.007-.202-.093-.407-.118-.218-.194-.34-.228-.368-.036-.043-.117-.242-.243-.6s-.186-.574-.18-.652c-.01-.092.013-.156.07-.194.07-.054.086-.126.045-.214-.022-.06-.012-.103.03-.13s.148-.06.314-.094c.256-.06.412-.08.47-.054s.147-.001.27-.077.218-.156.286-.242c.078-.132.436-.243 1.075-.333.168-.02.248-.067.24-.143-.014-.122.037-.15.152-.087.064.024.116.072.156.144s.076.123.1.15.065.03.094.012c.044-.02.096.028.156.144.16.307.194.543.105.707-.08.118.447 1.666 1.58 4.644l1.04 2.78c.007.06.054-.068.14-.387.388-1.468.66-2.806.814-4.015.003-.108.01-.187.02-.234.016-.265.035-.43.06-.494.022-.08-.023-.13-.133-.147s-.15-.1-.12-.24c.074-.565.186-.872.335-.92.046-.005.082.045.1.15l.12-.362.16-.83.315-1.498c.064-.116.222-.188.474-.217s.443-.082.574-.16c.115-.075.35-.172.71-.29s.62-.187.788-.207.256.002.262.062c.02.03.007.06-.035.097s-.025.057.054.063c.047.01.117.01.21-.001l.372.004.165.422.907 2.03 1.64 3.756.987 2.323c.024.075.07.015.142-.18s.195-.626.373-1.296l.4-1.554.222-.895.1-.452c.007-.07.004-.105-.012-.103-.048-.01-.076-.053-.085-.13-.012-.107.017-.26.086-.462s.127-.312.17-.333c.075-.024.198-.398.37-1.122s.224-1.112.156-1.166c-.036-.042-.017-.2.058-.506s.15-.5.23-.618c.052-.083.105-.298.158-.645l.075-.49L0 1.127.087 19.33l7.168-.384-.11-.246z" fill="#fff" mask="url(#C)"/></g><path d="M57.4 13.733c-.45 1.127-1.17 1.97-2.156 2.534-.278.14-.484.23-.62.268s-.462.088-.98.148c-.687.08-1.127.09-1.32.036-.21-.07-.344-.1-.405-.093-.092.01-.247-.064-.467-.224l-.31-.185c-.04-.02-.08.006-.12.072-.04.05-.08.07-.12.06s-.12-.07-.24-.18c-.312-.29-.376-.444-.193-.465.092-.01.052-.153-.12-.427-.034-.027-.062-.062-.082-.107-.396-.62-.686-1.4-.87-2.313-.078-.41-.15-.64-.22-.694s-.132-.37-.19-.952-.07-.967-.03-1.157c.05-.238.132-.332.246-.284.017.014.035.042.056.086l.053-.145c-.004-.03.001-.062.013-.094.002-.248.065-.607.19-1.078s.246-.852.367-1.144c.106-.29.252-.597.44-.92s.323-.52.407-.592.137-.155.157-.25c.018-.1.09-.25.22-.42s.23-.258.305-.267l.476-.1c.258-.045.488-.126.692-.242s.34-.178.408-.186.144.015.228.067c.115.064.257.086.425.067.153-.018.26-.015.326.01.05.04.164.082.34.123.464.132.94.4 1.43.833s.89.903 1.2 1.44c.465.813.76 1.77.887 2.868.17 1.48.03 2.785-.42 3.91h0zm-.59 1.715c-.196.247-.332.375-.408.383-.23.026-.18-.15.148-.527l.226-.258.137-.12c.035-.027.062-.034.08-.02s.036.042.056.086c.037.058-.042.2-.238.456h0zm-.06-9.286c.013-.017.043-.028.09-.034.076-.01.166.062.268.213s.162.303.18.455-.02.234-.11.245c-.046.006-.08-.02-.102-.08l-.316-.73c-.02-.028-.022-.05-.008-.068h0zm-16.554 8.472c-.052.022-.1-.005-.113-.08-.026-.1-.07-.402-.13-.936-.047-.675-.04-1.024.02-1.046.047.01.085.07.114.184s.068.39.12.834l.073.838c-.002.116-.03.185-.08.206h0zm-.744.69c-.054.068-.133.255-.237.56-.187.532-.467 1.083-.843 1.652s-.734.98-1.075 1.237c-.74.565-1.524.705-2.353.422s-1.575-.952-2.238-2.005l-.538-.843c-.186-.272-.38-.888-.584-1.847s-.3-1.732-.3-2.322c.012-.836.14-1.594.388-2.272.12-.307.14-.457.064-.448-.137.016-.142-.154-.012-.51.06-.146.173-.313.337-.503s.292-.288.383-.3c.076-.01.127-.038.152-.087.024-.064.168-.22.434-.468l.59-.51c.13-.092.275-.163.44-.213.147-.064.432-.104.856-.122s.776-.012 1.058.017c.316.057.558.145.726.264.166.105.302.136.405.093.105-.027.254.056.446.25.284.323.35.493.198.51-.046.005-.003.11.13.3.22.3.407.78.56 1.444l.07.41-.396.185c-.276.156-.41.264-.404.325s-.028.096-.104.105c-.06.007-.244.094-.55.26s-.477.222-.515.164c-.053-.056-.17-.042-.355.04s-.273.147-.268.193c.01.092-.042.106-.157.04-.066-.04-.102-.08-.108-.127-.062-.132-.12-.296-.172-.49-.09-.237-.187-.41-.292-.523a3.19 3.19 0 0 1-.282-.432c-.172-.29-.38-.28-.623.025-.255.34-.4.806-.465 1.4l-.003.685a5.08 5.08 0 0 0 .052.655c.03.182.066.27.112.266.076-.01.165.29.266.898.125.68.385 1.255.778 1.72.5.577.898.616 1.197.118.103-.182.113-.23.03-.143s-.155.134-.216.14c-.168.02-.146-.13.065-.448.145-.218.216-.342.212-.372s.01-.055.038-.074.063-.022.103-.012.07.03.088.06l.07-.194a1.19 1.19 0 0 1 .05-.168c.04-.314.09-.498.145-.55.057-.037.263.001.617.115.355.13.528.156.52.08-.014-.122.22-.118.698.012.32.102.486.196.496.28s-.008.13-.054.134-.01.032.102.08c.017.014.033.02.05.017.113.05.185.092.212.127s.042.13.044.285c.02.183.006.317-.047.4h0zm-5.932 3.5c-.062.007-.174-.096-.338-.31s-.25-.357-.26-.434c-.023-.198.062-.2.255-.006.068.054.14.13.212.23.24.33.282.5.13.52h0zm-1.558-1.84c-.077.01-.172-.08-.286-.27s-.2-.395-.257-.62c-.035-.166-.05-.27-.047-.308s.028-.053.076-.044c.093.005.184.126.274.363.07.21.143.37.218.485.168.244.175.374.022.392h0zm-.712 1.88c-.094-.012-.134.015-.118.083s-.065.135-.243.202c-.165.05-.365.127-.6.232-.2.1-.32.15-.39.15s-.11-.038-.118-.114c-.01-.092.065-.17.228-.235.073-.04.116-.068.13-.085l-.094-.012c-.137.016-.362.08-.674.193l-.493.15c-.015.002-.027-.036-.036-.112-.012-.107.02-.172.093-.196l-.028-.043c-.122.014-.19-.05-.208-.196s-.07-.212-.162-.202c-.062.007-.103-.015-.124-.067s-.046-.2-.074-.444c-.042-.367-.03-.554.04-.56s.082-.187.042-.54a5.26 5.26 0 0 0-.138-.796l-.077-.27-.406.905c-.507 1.234-.963 2.044-1.367 2.43-.42.388-.985.647-1.697.775-.32.052-.533.073-.643.063s-.285-.057-.526-.137c-1.373-.507-2.157-1.608-2.353-3.303-.146-1.267.066-2.652.635-4.157.175-.5.24-.746.193-.74l-.04.05c-.1.12-.237.36-.382.716-.116.34-.212.512-.288.52-.137.016-.12-.226.056-.726a3.23 3.23 0 0 1 .458-.76c.195-.247.34-.36.436-.34.063.01.184-.145.365-.46.35-.597.76-1.097 1.23-1.5s.934-.653 1.387-.752a1.54 1.54 0 0 1 .84.043c.24.08.487.2.737.356l.327.218-.053-.458-.04-.552c.01-.047.018-.1.025-.19-.007-.06.21-.132.65-.214.437-.097.736-.185.897-.266.117-.06.256-.09.42-.094s.27.023.322.08c.037.058.068.193.093.407s.088.36.2.442c.068.054.117.14.146.262s.072.425.128.913l.078 1.082c-.03.02.038.428.2 1.23l.305 1.24c.042.026.187.857.438 2.5l.416 3.212c.007.06-.037.085-.13.073h0zm-9.545.322c-.046.005-.13-.097-.256-.307s-.232-.433-.32-.67c-.072-.224-.137-.518-.195-.883s-.066-.572-.025-.623c.067-.085.136-.024.207.185.043.103.073.232.09.384.062.534.217 1.012.466 1.43.174.305.185.466.033.484h0zm-10.582-2.935c-.083.288-.162.444-.236.468-.046.005-.078-.003-.095-.024s-.017-.08.003-.174c.013-.156.053-.346.12-.57.1-.337.19-.424.27-.264.04.088.02.276-.063.564h0zm53.36-3.653l.206-11.52-23.116 1.238.184 2.427.38 3.507.23 1.597.463-.6c.292-.42.442-.662.45-.724-.007-.06.06-.223.2-.487s.276-.488.4-.673c.216-.272.356-.335.42-.187.004.03.09-.064.257-.285l.5-.71c.172-.252.26-.417.268-.495.034-.112.073-.17.12-.176s.135.035.27.12.196.097.2.036c-.018-.152.22-.04.71.336.357.284.543.487.557.61s.088.234.224.334.207.19.216.265-.102.3-.332.642-.376.53-.437.538c-.046.005-.468.506-1.266 1.503l-1.186 1.587c.004.03.16.2.473.48l.72.613.1.058c-.05-.04-.08-.09-.087-.152s.02-.095.08-.102.19.067.385.222.297.264.304.325-.018.1-.076.148c-.088.04.03.19.353.447l.873.735c.276.247.428.36.457.342.044-.02.166.035.367.167s.328.233.383.304c.07.085.096.167.075.247s-.075.093-.158.04c-.066-.038-.103-.054-.11-.045s.007.034.044.076c.04.088-.005.225-.14.4l-.076.148c.098-.088.17-.135.216-.14.214-.025.085.27-.386.88l-.532.618c-.098.09-.193.138-.284.15-.138.016-.258.05-.36.1s-.167.03-.192-.06c-.04-.088-.41-.482-1.11-1.183l-1.902-1.81-.86-.807.043.575c.055.752.17 1.133.34 1.144.063.01.106.046.13.113s.047.207.072.42c.037.32.028.516-.026.583-.07.07-.114.083-.135.04-.048-.01-.045.206.005.65l.08.687-1.076.124-1.23.21c-.075.024-.126.01-.155-.04s-.068-.22-.117-.51c-.076-.393-.33-2.33-.76-5.806l-1.04-7.63.016.138c.008.34-.033.522-.123.547-.075.024-.116-.002-.125-.08s-.02-.23-.03-.46c-.022-.462-.003-.696.058-.703.03-.02.06-.014.094.013.068.054.11.01.124-.13.01-.17-.02-.54-.082-1.11l-16.45.88c-.02.155-.134.616-.343 1.383l-.33 1.36.078-.125c.018-.1.09-.165.213-.164.06-.007.094.012.1.058s-.047.2-.156.46l-.3 1-.155.47c-.036.1-.086.13-.148.122-.03.004-.06.038-.092.103s-.082.226-.153.482l-.26.97-.423 1.66-1.01 4.942c.127.032.126.226-.003.58-.094.26-.147.473-.158.645-.01.187-.05.3-.123.34-.057.038-.143.373-.255 1.004s-.205.975-.276 1.03c-.056.053-.198.092-.427.12-.183.02-.282.04-.295.057s.013.045.08.084c.1.05.137.116.115.195s-.13.093-.32.037c-.19-.025-.54.001-1.058.076-.5.04-.74.03-.746-.03a.23.23 0 0 0-.118-.218c-.097-.035-.197-.163-.3-.383s-.195-.35-.277-.386c-.068-.054-.106-.112-.113-.173s-.123-.334-.35-.818-.335-.758-.326-.82c.022-.08-.147-.474-.507-1.183s-.572-1.067-.635-1.076c-.078-.006-.19-.16-.33-.46s-.225-.543-.246-.726c-.018-.153-.21-.556-.58-1.2l-.68-1.082c-.03.004-.056.053-.076.148-.14.527-.387 1.746-.74 3.658l-.503 3.69-.278 2.828c.01.078-.013.153-.06.227L62.2 19.41c.27-.014.43-.31.295-.54-.058-.1-.12-.185-.18-.228a2.6 2.6 0 0 1-.572-.533c-.17-.212-.248-.367-.236-.464.015-.113-.076-.298-.272-.555a7.77 7.77 0 0 1-.577-.867c-.188-.322-.327-.455-.416-.4-.07.04-.143.022-.215-.053s-.185-.28-.34-.613c-.26-.528-.3-.78-.122-.757.05.006.062-.033.04-.118-.024-.07-.07-.1-.136-.092-.07.024-.133.003-.19-.062s-.137-.21-.24-.44c-.2-.47-.23-.698-.083-.678.05.006.035-.078-.04-.252-.123-.313-.067-.495.17-.546.1-.02.157-.062.165-.127s.18-.182.516-.352c.542-.24.803-.28.782-.12-.007.05.13.025.405-.07.313-.123.56-.198.746-.223.136-.032 1.35-.2 1.397-.184s.107.068.177.16c.128.195.316.332.532.38.117.026.22.093.28.198l.396.718z" fill="#fff"/><g transform="translate(59.762 .097)"><mask id="D" fill="#fff"><use xlink:href="#B"/></mask><path d="M10.214.177c.305-.058.536-.07.696-.03.113.015.184.037.214.065s.044.1.045.216c-.005.164.04.253.138.265.08.01.12.062.116.15s-.054.376-.15.857c-.12.66-.214 1.06-.282 1.198-.052.142-.054.224-.008.246.062.025.054.275-.025.75s-.155.733-.226.773c-.037.028-.112.32-.226.872l-.263 1.522c-.06.462-.08.735-.06.82.05.006.043.237-.017.7s-.13.674-.21.664c-.05-.007-.082.026-.1.098s-.036.24-.053.5c-.02.41-.073.73-.153.968a9.9 9.9 0 0 0-.261 1.226l-.165.868.216-.886c.128-.592.224-.885.29-.876s.098.067.1.174-.044.394-.138.86c-.12.66-.22.984-.302.973-.016-.002-.048-.015-.094-.037-.042-.055-.08-.027-.1.084-.054.158-.177.7-.368 1.656-.348 1.634-.64 2.658-.876 3.072-.146.228-.208.384-.186.47.017.118-.16.304-.53.56s-.738.442-1.1.56c-.207.072-.372.107-.496.107s-.395-.036-.814-.108c-.613-.097-1.017-.217-1.212-.358a2.59 2.59 0 0 1-.572-.533c-.17-.212-.248-.366-.236-.464.015-.113-.076-.298-.273-.555-.21-.275-.403-.564-.577-.867-.188-.322-.327-.455-.416-.4-.07.04-.143.022-.215-.053s-.185-.28-.34-.613c-.26-.53-.3-.78-.122-.757.05.006.062-.033.04-.118-.024-.07-.07-.1-.136-.092-.07.024-.132.003-.19-.062s-.137-.212-.238-.44C.13 13.717.1 13.49.247 13.5c.05.006.035-.077-.04-.252-.123-.313-.066-.494.17-.546.1-.02.156-.062.165-.126s.18-.182.516-.352c.542-.24.803-.28.782-.12-.006.05.128.025.405-.07.312-.123.56-.197.746-.222.136-.032.228-.04.275-.025s.106.068.176.16a.98.98 0 0 1 .169.405c.016.126.073.195.17.208.064.008.117.052.155.13a3.19 3.19 0 0 1 .156.503c.1.475.26.842.472 1.1s.4.326.59.202c.163-.1.294-.324.394-.64s.227-.876.383-1.68c.186-1.03.24-1.566.163-1.61-.075-.06-.083-.303-.027-.733s.126-.638.207-.627c.064.01.123-.185.176-.582s.047-.632-.018-.707-.064-.354 0-.84c.062-.47.13-.71.208-.726s.13-.15.166-.4c.028-.2.025-.318-.007-.322l-.052.018c-.108.068-.165.003-.172-.196l.06-.46c.052-.39.04-.588-.032-.597s-.07-.314.01-.913l.142-1.637.07-.633c.016-.064.065-.1.146-.08.113.015.167.046.16.095s.04.063.143.043.175-.14.22-.366l.073-.36 1.107-.15 1.536-.217z" fill="#fff" mask="url(#D)"/></g><path d="M80.84 8.086c.168.04.272.094.312.165.024.07.02.217-.01.443s-.003.395.08.505c.056.073.084.176.083.307s-.036.457-.104.975l-.2 1.135c-.034.012-.072.452-.112 1.32l-.007 1.358c.036.038-.03.93-.194 2.68l-.403 3.418c-.01.065-.06.08-.153.04s-.142-.02-.144.055-.103.122-.303.145a5.5 5.5 0 0 0-.678.083c-.22.053-.368.07-.44.053s-.102-.067-.1-.148c.013-.097.1-.158.296-.183.085-.02.137-.04.155-.054l-.094-.037c-.146-.02-.394-.01-.745.025l-.547.027c-.016-.002-.02-.044-.008-.125.015-.113.064-.173.147-.178l-.018-.052c-.13-.017-.184-.102-.163-.256s-.018-.237-.115-.25c-.065-.008-.102-.042-.1-.1s.004-.217.038-.477c.05-.4.113-.578.186-.57s.134-.17.183-.544.07-.658.064-.857l-.01-.297-.653.828c-.843 1.14-1.522 1.858-2.04 2.152-.533.292-1.183.412-1.95.36-.342-.03-.57-.063-.678-.102s-.28-.132-.507-.277c-1.284-.878-1.807-2.216-1.57-4.013.178-1.344.755-2.717 1.73-4.12.3-.47.44-.708.4-.714l-.055.042c-.145.096-.337.3-.58.64-.207.32-.35.473-.432.462-.146-.02-.064-.264.245-.733a3.47 3.47 0 0 1 .669-.665c.266-.204.445-.283.538-.238.063.025.228-.1.496-.38A6.28 6.28 0 0 1 75 8.7c.6-.302 1.132-.43 1.624-.415a1.63 1.63 0 0 1 .855.262 3.66 3.66 0 0 1 .668.557l.28.3.064-.486.102-.58c.022-.047.047-.1.074-.188.008-.064.25-.082.723-.053.476.014.807 0 .994-.04a1.01 1.01 0 0 1 .456.01zm-5.103 2.8c-.37.297-.707.677-1.015 1.138s-.495.878-.56 1.248c-.147.738-.294 1.098-.44 1.08s-.267.335-.363 1.064c-.07.534-.043.913.085 1.135s.37.292.726.207c.597-.15 1.32-.814 2.166-1.987.3-.405.418-.636.35-.695s-.052-.196.042-.414a1.74 1.74 0 0 0 .19-.692c.032-.243.077-.364.135-.365s.1.126.16.38c.02.1.054.1.104-.036a.23.23 0 0 0 .037-.094c.217-.647.25-1.013.096-1.1-.095-.03-.228-.145-.4-.35-.257-.297-.535-.375-.834-.234-.14.064-.24.067-.297.01-.04-.07-.005-.153.106-.245s.243-.153.395-.183c.1-.003.158-.012.176-.026l-.24-.056c-.194-.026-.4.046-.62.214zm10.406-2.084c.168-.027.473.005.914.096a8.09 8.09 0 0 1 1.086.292c.3.14.538.294.68.46.145.15.276.218.394.2.115-.001.247.123.395.374.2.407.233.6.072.578-.05-.006-.03.1.052.353.15.366.217.9.204 1.633l-.034.44-.456.088c-.325.1-.492.166-.5.23s-.053.092-.134.08c-.065-.01-.276.034-.634.126s-.55.105-.573.036c-.04-.07-.165-.088-.376-.05s-.32.08-.326.13c-.013.097-.07.098-.173.002-.06-.057-.084-.1-.078-.16a3.27 3.27 0 0 1-.051-.55c-.03-.267-.086-.472-.166-.615a3.36 3.36 0 0 1-.178-.518c-.103-.343-.32-.388-.65-.135-.35.283-.632.724-.842 1.322l-.18.705c-.06.264-.098.493-.116.7s-.002.296.046.303c.08.01.095.342.04.994-.048.735.07 1.393.357 1.975.365.724.766.868 1.203.43.153-.16.176-.207.068-.14s-.195.098-.26.1c-.178-.024-.117-.172.182-.445.206-.187.3-.296.315-.33s.024-.055.058-.067.07-.007.1.015.063.05.075.084l.123-.18c.022-.047.054-.1.095-.16.124-.313.22-.5.293-.53.07-.024.27.07.606.278.332.225.504.298.515.216.017-.13.256-.065.716.194.304.2.45.328.44.416s-.042.13-.1.124-.02.03.084.1c.014.02.03.03.045.03.104.08.166.142.185.185s.01.146-.028.305c-.026.195-.077.328-.152.4-.073.056-.203.23-.4.517-.33.5-.762.995-1.296 1.484s-1 .82-1.43.997c-.908.4-1.753.332-2.534-.175s-1.377-1.4-1.787-2.646l-.336-1.008c-.12-.33-.163-1.014-.123-2.055s.14-1.863.302-2.468c.23-.86.558-1.606.988-2.24.202-.286.264-.435.183-.446-.146-.02-.106-.195.12-.527.1-.135.26-.278.477-.43s.375-.222.473-.2c.08.01.14-.006.18-.05.04-.06.23-.183.568-.37l.74-.37c.156-.062.325-.097.508-.106h0zm10.78 4.418c-.322-.306-.8-.188-1.43.354-.8.685-1.38 1.786-1.746 3.302l-.172.928c-.002.14.046.216.142.23.065.008.106.04.124.1s.014.175-.012.37c-.02.277-.064.42-.13.427-.084.006-.085.146-.006.42.08.258.172.443.272.555s.246.197.436.255c.382.1.75-.015 1.108-.347.43-.388.837-1.067 1.22-2.038s.587-1.858.612-2.662l.023-.454c.006-.106.001-.193-.015-.26s-.03-.107-.046-.117a.18.18 0 0 0-.07-.022c-.07.024-.18-.07-.334-.28s-.233-.356-.238-.44c.026-.194.125-.197.297-.01.044.04.086.094.126.165l.23.327-.104-.335c-.086-.225-.18-.378-.285-.458h0zm-.83-3.248c.24-.067.396-.096.47-.086s.145.052.218.127c.102.096.243.156.42.18.162.02.273.053.334.093.042.055.148.127.318.215.444.256.863.666 1.258 1.23a5.94 5.94 0 0 1 .862 1.794c.27.96.326 2.02.17 3.185-.208 1.57-.7 2.878-1.446 3.923s-1.716 1.73-2.878 2.053c-.322.072-.558.1-.707.116s-.5-.03-1.05-.102c-.73-.096-1.185-.198-1.37-.305-.198-.125-.33-.192-.393-.2-.097-.013-.238-.13-.423-.352l-.273-.27c-.037-.03-.084-.015-.142.043-.055.042-.102.052-.14.03s-.106-.104-.202-.25c-.246-.378-.273-.555-.078-.53.097.013.093-.144-.012-.47a.3.3 0 0 1-.057-.131c-.248-.74-.347-1.6-.297-2.6.025-.44.01-.7-.046-.772s-.04-.417.05-1.03.18-1.014.27-1.2c.113-.232.222-.308.327-.228.014.018.025.053.036.103l.092-.136c.004-.032.016-.064.037-.094.066-.255.224-.6.474-1.062s.474-.814.675-1.085a6.4 6.4 0 0 1 .69-.835c.275-.285.468-.453.573-.505s.18-.124.226-.217c.047-.1.158-.234.334-.376s.303-.207.384-.196l.516.02c.277.02.536-.003.775-.07h0z" fill="#fff"/></g></svg>